<?xml version="1.0" encoding="utf-8"?>
<!-- Generator: Adobe Illustrator 18.0.0, SVG Export Plug-In . SVG Version: 6.00 Build 0)  -->
<!DOCTYPE svg PUBLIC "-//W3C//DTD SVG 1.1//EN" "http://www.w3.org/Graphics/SVG/1.1/DTD/svg11.dtd">
<svg version="1.1" id="Layer_1" xmlns="http://www.w3.org/2000/svg" xmlns:xlink="http://www.w3.org/1999/xlink" x="0px" y="0px"
	 viewBox="0 0 595.3 595.3" enable-background="new 0 0 595.3 595.3" xml:space="preserve">
<g>
	<path fill="#80CDDA" d="M131.2,350.3c0-1.5,0.4-2.7,1.2-3.3c0.8-0.7,1.8-0.9,3.2-0.7c0.6,0.1,1.2,0.5,1.8,1.1
		c0.5,0.7,0.9,1.4,0.9,2.1c0.1,1,0.1,2.1,0.2,3.3c0.1,1.2,0.1,2.3,0.1,3.2c0,1.4,0,2.6,0,3.7c0,1.1,0,2.2,0,3.3c0,1.1,0,2.2,0,3.3
		c0,1.1,0,2.3,0.1,3.7c0,0.8,0,1.5,0,2.1c0,0.6,0.1,1,0.3,1.4c0.2,0.4,0.5,0.6,0.9,0.8c0.4,0.2,1,0.3,1.8,0.4
		c1.4,0.1,2.9,0.2,4.7,0.2c1.8,0,3.5,0,5.2-0.1c1.7-0.1,3.3-0.1,4.7-0.2c1.4-0.1,2.5-0.1,3.2-0.1c1.2,0.1,2.1,0.4,2.8,1
		c0.6,0.6,1.1,1.3,1.3,2c0.1,0.3,0.1,0.7,0,1.1c-0.1,0.4-0.2,0.8-0.5,1.2c-0.3,0.4-0.7,0.8-1.2,1.1c-0.5,0.3-1.2,0.6-1.9,0.7
		c-0.3,0-1.1,0.1-2.3,0.1c-1.2,0-2.7,0-4.3,0c-1.7,0-3.5,0-5.4,0c-1.9,0-3.7,0-5.5,0c-1.7,0-3.3,0-4.6,0c-1.3,0-2.2,0-2.7,0
		c-1.5,0-2.6-0.3-3.2-1c-0.6-0.6-0.9-1.7-0.9-3.3c0-0.8,0-1.8,0-3.2c0-1.4,0-3,0-4.7c0-1.7,0-3.6,0-5.5c0-1.9,0-3.7,0-5.5
		c0-1.7,0-3.3,0-4.7C131.2,352.1,131.2,351.1,131.2,350.3z M166.7,363.2c-0.1-2.1,0.3-4.2,1-6.1c0.8-1.9,1.8-3.7,3.2-5.2
		c1.4-1.5,3.1-2.7,5.1-3.7c2-1,4.3-1.6,6.7-1.8c1.8-0.1,3.5,0,5.3,0.5c1.8,0.5,3.4,1.3,5,2.3c6.7,4.5,11.1,16.4,6.5,23.7
		c-1.3,2-3,3.8-5.3,5.3c-2.1,1.4-4.3,2.2-6.5,2.7c-2.2,0.4-4.5,0.6-6.9,0.4c-2.8-0.3-5.2-1.2-7.1-2.7c-1.9-1.5-3.5-3.4-4.8-5.8
		c-0.9-1.5-1.5-3.1-1.9-4.7C166.7,366.5,166.6,364.8,166.7,363.2z M184.5,375.1c2-0.2,3.7-0.6,5.2-1.3c3-1.3,4.5-5.3,4.6-8.4
		c0.2-3.3-1.2-7-3.4-9.4c-0.9-1-2-1.8-3.2-2.4c-1.2-0.6-2.6-0.9-4-0.9c-6.1,0.1-9.9,4.6-9.5,10.7c0.1,1.4,0.3,2.9,0.6,4.3
		c0.2,1.1,0.6,2,1,3c0.5,0.9,1.1,1.7,1.9,2.4c0.8,0.7,1.7,1.2,2.8,1.6C181.7,374.9,183,375.1,184.5,375.1z M235.1,372.5
		c-0.2-0.1-0.7-0.2-1.5-0.3c-0.8-0.1-1.8-0.1-2.9-0.1c-1.1,0-2.4,0-3.7,0c-1.4,0-2.7,0-4,0c-1.3,0-2.5,0-3.7,0c-1.1,0-2,0-2.7,0
		c-0.7,0-1.2,0-1.6,0.1c-0.4,0.1-0.6,0.2-0.8,0.4c-0.2,0.2-0.3,0.5-0.3,0.9c-0.1,0.4-0.1,1-0.2,1.7c-0.1,0.8-0.1,1.4-0.1,1.9
		c0,0.5,0,1.1-0.1,1.9c-0.1,0.7-0.3,1.2-0.6,1.6c-0.3,0.3-0.7,0.6-1.1,0.7c-0.4,0.2-0.8,0.2-1.3,0.2c-0.5,0-0.8,0-1.2,0
		c-1.2,0-2-0.4-2.3-1.1c-0.4-0.7-0.5-1.6-0.3-2.8c0.3-2.4,0.4-4.7,0.4-7.1c0-2.3,0.1-4.7,0.4-7.1c0.3-2.5,0.8-4.8,1.6-7.1
		c0.8-2.2,2.3-4.1,4.3-5.7c1-0.8,2.1-1.5,3.2-2.1c1.1-0.6,2.2-1.1,3.4-1.5c1.1-0.4,2.4-0.6,3.6-0.8c1.3-0.1,2.6,0,3.9,0.3
		c1.4,0.3,2.7,0.8,4.2,1.5c1.4,0.7,2.6,1.5,3.6,2.5c1.9,1.8,3.3,3.8,4.3,5.9c1,2.1,1.8,4.4,2.4,6.9c0.1,0.6,0.3,1.4,0.4,2.4
		c0.1,1,0.2,2,0.3,3.1c0.1,1.1,0.1,2.2,0.2,3.4c0,1.2,0.1,2.2,0.1,3.2c0,1,0,1.9-0.1,2.6c0,0.7-0.1,1.2-0.2,1.5
		c-0.2,0.9-0.7,1.5-1.6,1.9c-0.8,0.4-1.8,0.5-2.7,0.3c-1.1-0.3-1.8-0.9-2.1-1.9c-0.3-0.9-0.4-2-0.4-3.2c0-0.3,0-0.7,0-1.2
		c0-0.5,0-0.9-0.1-1.3c-0.1-0.4-0.2-0.8-0.3-1.1C235.5,372.7,235.3,372.6,235.1,372.5z M232.6,365.4c0.8,0,1.4-0.1,1.8-0.3
		c0.4-0.2,0.7-0.4,0.8-0.7c0.1-0.3,0.1-0.7,0-1.1c-0.1-0.5-0.3-1-0.6-1.6c-0.5-1.4-1.1-2.6-1.8-3.6c-0.7-1-1.6-2-2.8-3.1
		c-0.9-0.8-1.8-1.4-2.8-1.6c-1-0.2-2.1-0.3-3.5-0.2c-2.6,0.5-4.6,1.5-6.2,3.1c-1.6,1.6-2.5,4-3,7.3c-0.1,0.8-0.1,1.3,0.1,1.5
		c0.2,0.2,0.7,0.3,1.6,0.3c2.8,0,5.6,0,8.3-0.1C227.3,365.1,230,365.1,232.6,365.4z M248.6,368.8c0.1-2.9,0.2-5.8,0.3-8.9
		c0.1-3,0.3-6.1,0.4-9.2c0-0.9,0.2-1.6,0.3-2.2c0.2-0.6,0.5-1,0.8-1.4c0.4-0.3,0.9-0.6,1.5-0.7c0.6-0.1,1.4-0.2,2.3-0.2
		c2.6,0,5.1,0.1,7.6,0.4c2.5,0.3,5,0.9,7.4,1.7c2,0.7,3.8,1.6,5.5,2.6c1.7,1.1,3.1,2.5,4.4,4.1c0.7,1,1.4,2,1.9,3
		c0.6,1,1,2.1,1.4,3.1c0.3,1.1,0.5,2.2,0.6,3.4c0.1,1.2-0.1,2.4-0.4,3.7c-0.6,2.2-1.5,4-2.8,5.4c-1.3,1.4-3,2.7-4.9,3.7
		c-1.3,0.7-2.5,1.2-3.5,1.6c-1,0.4-2.1,0.7-3.1,1c-1,0.2-2.1,0.4-3.2,0.5c-1.1,0.1-2.4,0.2-3.7,0.3c-0.3,0-0.8,0.1-1.4,0.1
		c-0.6,0.1-1.3,0.1-1.9,0.2c-0.7,0.1-1.3,0.1-1.9,0.2c-0.6,0.1-1.1,0.1-1.4,0.1c-1.8,0.1-3.2-0.3-4.1-1.1c-0.9-0.8-1.5-2.1-1.8-3.9
		c-0.2-1.2-0.3-2.4-0.3-3.6C248.7,371.6,248.6,370.2,248.6,368.8z M256.1,373.3c0,0.4,0,0.8,0.1,1.2c0.1,0.4,0.4,0.6,1,0.6
		c1.2,0,2.3-0.1,3.5-0.1c1.1-0.1,2.3-0.2,3.4-0.3c1.1-0.1,2.3-0.4,3.4-0.7c1.1-0.3,2.2-0.7,3.2-1.2c0.8-0.4,1.5-0.8,2.3-1.4
		c0.7-0.5,1.3-1.2,1.7-2c0.7-1.2,1-2.6,1-4.2c0-1.5-0.3-3-0.8-4.4c-0.6-1.4-1.4-2.7-2.4-3.8c-1-1.1-2.2-1.9-3.6-2.4
		c-1.4-0.5-2.7-0.8-4.1-1.1c-1.4-0.3-2.8-0.5-4.2-0.6c-0.9-0.1-1.7-0.1-2.3-0.1c-0.6,0-1,0.2-1.3,0.5c-0.3,0.3-0.5,0.7-0.6,1.3
		c-0.1,0.6-0.2,1.4-0.2,2.3c0,0.4,0,1,0,1.9c0,0.8,0,1.8,0,2.8c0,1.1,0,2.2,0,3.3c0,1.2,0,2.3,0,3.4c0,1.1,0,2.1,0,2.9
		C256.1,372.1,256.1,372.8,256.1,373.3z M301,346c1-0.1,2-0.1,3.1,0c1.1,0.2,1.8,0.6,2.2,1.3c0.5,1,0.5,1.8,0.2,2.4
		c-0.4,0.6-1,1.1-1.8,1.4c-0.7,0.2-1.2,0.4-1.6,0.6c-0.4,0.2-0.6,0.4-0.8,0.6c-0.2,0.2-0.3,0.5-0.3,0.9c0,0.4-0.1,0.9-0.1,1.6
		c0,0.9,0,2-0.1,3.2c0,1.3-0.1,2.6-0.1,3.9c0,1.4-0.1,2.7-0.1,4.1c-0.1,1.4-0.1,2.6-0.1,3.7c0,1.1,0,2-0.1,2.8
		c0,0.7-0.1,1.2-0.1,1.3c0,0.6,0.1,1.1,0.4,1.2c0.3,0.2,0.8,0.4,1.5,0.6c1.3,0.2,2.2,0.4,2.6,0.8c0.4,0.3,0.6,0.9,0.5,1.9
		c0,0.6-0.1,1.1-0.2,1.4c-0.1,0.3-0.3,0.6-0.5,0.8c-0.2,0.2-0.4,0.3-0.7,0.4c-0.3,0.1-0.6,0.1-0.9,0.2c-1.5,0.2-3,0.3-4.7,0.3
		c-1.7,0-3.4,0.1-5.2,0.1c-0.6,0-1.1,0-1.7,0.1c-0.6,0-1.1,0-1.6,0c-0.5-0.1-0.9-0.2-1.3-0.4c-0.4-0.2-0.6-0.6-0.8-1
		c-0.4-1.2-0.4-2.2,0-2.8c0.4-0.6,1.2-1.1,2.3-1.2c0.9-0.1,1.5-0.4,1.9-0.7c0.4-0.3,0.7-0.7,0.8-1.1c0.2-0.4,0.2-0.9,0.2-1.5
		c0-0.6,0-1.2,0.1-1.9c0.2-2.6,0.3-5.3,0.3-7.9s0-5.2,0.1-7.8c0-0.8,0-1.4,0-1.8c0-0.4-0.1-0.7-0.3-0.9c-0.2-0.2-0.5-0.3-0.9-0.4
		c-0.4-0.1-1-0.1-1.7-0.2c-0.5,0-0.9-0.1-1.2-0.1c-0.4,0-0.7-0.1-0.9-0.3c-0.2-0.1-0.4-0.4-0.6-0.7c-0.1-0.3-0.2-0.8-0.1-1.4
		c0-1.1,0.3-1.8,0.9-2.2c0.6-0.4,1.3-0.6,2.1-0.6c0.5,0,1.2-0.1,2.1-0.1c0.9,0,1.8-0.1,2.8-0.1c1,0,1.9-0.1,2.7-0.1
		C300.1,346.1,300.7,346,301,346z M320.3,359.3c-0.3,0-0.5,0.2-0.5,0.5c-0.1,0.3-0.1,0.5,0,0.7c0,1.8-0.2,14.9-0.2,16.4
		c0,0.4,0,0.9-0.1,1.4c-0.1,0.5-0.2,1-0.4,1.4c-0.2,0.5-0.5,0.8-0.8,1.2c-0.3,0.3-0.7,0.5-1.2,0.6c-1.6,0.3-2.7,0.3-3.3-0.1
		c-0.6-0.4-1.1-1-1.4-2c-0.2-0.6-0.2-1.3-0.2-2c0.2-3.5,0.3-7,0.2-10.4c0-3.4-0.1-6.9-0.1-10.3c0-2.1,0.2-4.2,0.5-6.4
		c0.2-1.3,0.8-2.3,1.7-3c1-0.7,2.1-1,3.4-0.9c0.5,0.1,0.9,0.2,1.2,0.5c0.3,0.3,0.6,0.6,0.9,0.9c2.6,3,5.2,6.1,7.8,9.1
		c3.2,3.7,6.2,7.7,9.7,11.1c0.3,0.3,0.8,0.7,1.2,0.5c0.6-0.1,0.7-0.9,0.7-1.5c-0.1-0.8-0.4-7.6-0.4-10c0-2.4-0.1-4.8-0.4-7.2
		c-0.1-0.6,0-1.1,0.3-1.7c0.2-0.6,0.6-1,1.1-1.4c0.5-0.4,1.1-0.6,1.8-0.7c0.7-0.1,1.5,0,2.5,0.3c0.6,0.2,1,0.6,1.2,1.2
		c0.1,0.6,0.3,1.3,0.4,2c0.3,3.7,0.4,7.1,0.5,10.3c0.1,3.2,0.2,6.5,0.3,9.8c0,1.1,0.1,2.1,0.1,3c0,0.9,0,2-0.1,3.4
		c-0.1,0.9-0.2,1.7-0.4,2.5c-0.2,0.7-0.4,1.3-0.6,1.7c-0.2,0.5-0.6,0.8-1,1.1c-0.5,0.2-1,0.3-1.6,0.4c-0.6,0-1.1-0.1-1.7-0.3
		c-0.6-0.2-1.1-0.5-1.5-0.8c-0.9-0.7-1.7-1.5-2.6-2.5c-0.9-1-15.3-17.4-16.4-18.3C320.7,359.4,320.4,359.3,320.3,359.3z
		 M371.2,346.2c0.8,0,1.6,0,2.4,0.2c0.8,0.2,1.6,0.4,2.4,0.7c0.7,0.3,1.3,0.5,1.9,0.8c0.5,0.2,1,0.5,1.5,0.8c0.5,0.3,0.9,0.6,1.4,1
		c0.5,0.4,1,0.8,1.6,1.2c0.5,0.4,0.9,0.9,1.3,1.3c0.4,0.5,0.6,0.9,0.7,1.4c0.1,0.5,0.1,0.9-0.1,1.3c-0.2,0.4-0.5,0.8-1.1,1.1
		c-1.1,0.7-2.1,0.9-2.8,0.5c-0.8-0.3-1.7-1-2.7-1.9c-1.1-1.1-2.3-1.7-3.6-2c-1.2-0.2-2.7-0.3-4.4-0.2c-1,0-2,0.2-3,0.6
		c-1,0.4-1.8,0.8-2.6,1.5c-0.8,0.6-1.5,1.3-2.1,2.2c-0.6,0.8-1.1,1.7-1.4,2.7c-0.4,1.2-0.7,2.4-1,3.5c-0.2,1.1-0.3,2.2-0.3,3.2
		c0.1,1.1,0.3,2.1,0.7,3.1c0.4,1,1,2,1.9,3c0.7,0.9,1.6,1.5,2.6,2c1,0.5,2.1,0.7,3.2,0.9c1.1,0.1,2.2,0.1,3.2,0
		c1-0.1,1.9-0.3,2.7-0.6c1.4-0.5,2.5-1.3,3.3-2.5c0.8-1.1,1.5-2.3,2-3.6c0.2-0.3,0.1-0.6,0-0.8c-0.2-0.2-0.4-0.3-0.8-0.4
		c-0.2,0-0.6,0-1.4,0.1c-0.8,0-1.7,0.1-2.8,0.2c-1.1,0.1-2.1,0.2-3.1,0.2c-1,0.1-1.8,0.1-2.3,0.1c-1.3,0.1-2.4-0.1-3.3-0.6
		c-0.9-0.5-1.3-1.3-1.4-2.4c0-0.7,0.1-1.2,0.3-1.7c0.3-0.5,0.6-0.8,1-1.1c0.4-0.3,0.8-0.5,1.2-0.6c0.4-0.1,0.9-0.2,1.2-0.2
		c0.5,0,1.2-0.1,2.1-0.1c1,0,2.1,0,3.3,0c1.2,0,2.5,0,3.8-0.1c1.3,0,2.4-0.1,3.4-0.2c2.1-0.3,3.7,0.1,4.7,1.1c1.1,1,1.5,2.5,1.4,4.7
		c-0.2,3.4-1.1,6.2-2.8,8.5c-1.7,2.3-4.2,4-7.6,5.2c-5,1.8-10,1.7-14.9-0.3c-1-0.4-1.8-0.9-2.6-1.6c-0.7-0.6-1.4-1.3-2.1-2.2
		c-3.5-4.7-4.7-9.9-3.7-15.7c0.3-1.7,0.9-3.3,1.7-4.8c0.8-1.5,1.8-2.9,3-4.1c1.2-1.2,2.5-2.2,4-3c1.5-0.8,3.1-1.4,4.8-1.7
		c0.8-0.1,1.6-0.3,2.4-0.4C369.6,346.2,370.4,346.1,371.2,346.2z M376.2,397.9H140.7c-17.6,0-31.9,14.3-31.9,31.9v0
		c0,17.6,14.3,31.9,31.9,31.9h235.5c17.6,0,31.9-14.3,31.9-31.9v0C408.1,412.2,393.8,397.9,376.2,397.9z M376.2,452H140.7
		c-12.2,0-22.1-9.9-22.1-22.1v0c0-12.2,9.9-22.1,22.1-22.1h235.5c12.2,0,22.1,9.9,22.1,22.1C398.3,442.1,388.4,452,376.2,452z"/>
	<path fill="#FBD4D7" d="M391.4,431.3c-0.7,8-8,13.8-16,13.8h-97.2v-30.5h98C385,414.7,392.2,422.3,391.4,431.3z"/>
	<path fill="#F38DAF" d="M517.6,240.2c-2.3-1.3-5.2,0.5-8.4,5.4c-1.4,2.2-2.5,4-3.4,5.4c-0.9,1.4-1.8,2.7-2.7,3.9
		c-0.9,1.2-2,2.4-3.1,3.6c-1.1,1.3-2.4,2.7-4,4.2c-0.2,0.2-0.6,0.6-1.3,1.2c-0.7,0.6-1.4,1.3-2.1,1.9c-0.7,0.6-1.4,1.1-2.1,1.5
		c-0.7,0.4-1.1,0.5-1.3,0.4c-0.3-0.3-0.4-2.2-0.2-5.6c0.2-3.4,0.4-7.3,0.7-11.6c0.9-12.9,2-25.9,3.5-38.8c0.8-5,0.1-7.9-2.1-8.7
		c-4.2-2-7.2-0.4-8.9,4.9c-1.3,4.5-2.6,8.5-4,11.9c-1.4,3.4-3.1,6.7-4.9,10c-1.6,2.8-3.1,5.4-4.5,7.7c-1.4,2.3-2.9,4.5-4.3,6.5
		c-1.5,2-3.2,3.9-5,5.9c-1.9,2-4.1,4-6.6,6c-1.6,1.3-3.3,2-5,2.3c-1.8,0.3-3.5,0.2-5.2-0.2c-1.6-0.5-3.1-1.3-4.2-2.5
		c-1.2-1.2-2-2.6-2.5-4.3c-0.8-3.6-1.1-6.8-0.9-9.7c0.2-2.9,0.6-6.1,1.4-9.7c0.3-1.3,0.6-2.5,0.8-3.8c0.2-1.3,0.5-2.6,0.8-4
		c1.1-4.1,2.1-7.5,2.9-10.2c0.9-2.7,1.8-5.7,2.7-8.8c0.9-2.5,0.5-4.8-1.4-6.8c-0.8-0.8-1.8-1.3-3.1-1.4c-1.3-0.2-2.5-0.1-3.8,0.2
		c-3.1,1.1-5.8,2.7-7.9,4.8c-2.1,2.1-4,4.6-5.5,7.4c-4.4,9.1-7.8,20.8-8.5,30.9c0,0.5,0,1,0,1.6c0,1-13.2,4.1-14.4,3.7
		c-0.5-0.2-1.4-1.3-2.5-3.5c-1.9-3.8-4.3-6.8-7.2-9.2c-2.9-2.3-6.1-3.9-9.6-4.7c-3.5-0.8-7.2-0.8-11-0.1c-3.8,0.7-7.5,2.2-11.1,4.6
		c-6.7,4.4-11.7,9.6-17.1,15.6c-1.4,1.6-3.8,6.8-6,4.4c-2.1-2.2,2.9-23,3.6-27.6c1.1-7.4,2.7-14.9,4.7-22.4
		c4.5-16.7,8.1-33.4,12.9-50c1.3-4.6,5.5-12,2.4-16.6c-0.6-0.9-1.4-1.6-2.5-1.9c-1-0.3-2.1-0.3-3.2,0c-5.3,1.1-9.7,4.1-13.1,9.2
		c-1.4,2.2-2.7,4.3-3.8,6.5c-3.8,7.4-6.7,15.3-9.4,23.2c-1.7,5.1-3.3,10.3-4.7,15.7c-1.4,5.4-2.7,10.8-3.9,16.3
		c-1.2,5.5-2.2,10.6-3.2,15.5c-1.4,7.8-2.7,16.3-3.8,25.3c-0.3,2.7-0.6,5.3-0.8,7.9c-2.9,4.3-5.7,7.8-8.6,10.3
		c-3.6,3.2-7,5.4-10.3,6.7c-3.1,1.3-5.5,1.1-7.2-0.4c-1.6-1.5-3.2-4.2-4.6-8.1c-1.4-4.1-2.4-8.1-3.1-12.1c-0.6-4-0.3-8.1,0.9-12.3
		c0.8-2.2,0.2-3.8-1.6-4.9c-1.6-1.1-3.4-1.2-5.4-0.2c-0.9,0.6-1.7,1.3-2.3,2.1c-0.6,0.8-1.3,1.6-1.9,2.3c-3.1,4.5-6.3,9-9.5,13.3
		c-3.2,4.3-7,8.3-11.4,11.9c-2,1.7-4.1,3.2-6.2,4.5c-12.6,7.5-20.6-2.6-18.3-15.9c2.8-16.3,17.4-29.8,33.8-31.4
		c2.1-0.2,4.3-0.2,6.2-0.9c2-0.7,3.9-2.2,4.2-4.3c1.3-7.6-16.3-10.4-20.9-10.4c-3.6,0-7.5,0.6-11.6,1.9c-4.1,1.3-7.8,3.1-10.9,5.6
		c-3.3,2.7-6.4,5.9-9.4,9.7c-3,3.8-5.2,9.5-6.6,17c-0.2,0.9-0.4,1.9-0.5,3c-3.5,0.6-6.9,1.4-10.3,2.5c-2,0.7-5.1,1.9-7.3,1.3
		c-2.1-0.9-4.5-5.6-5.8-7.6c-2-3-3.6-5.8-6.2-8.3c-5-4.8-11.5-7.6-18.3-8.8c-0.9-0.2-1.5-0.6-1.6-1.4c-0.3-0.5-0.4-0.9-0.1-1.2
		c0.2-0.3,0.5-0.5,0.8-0.7c2.7-3.6,4.9-6.9,6.8-9.9c1.9-3,3.7-6.3,5.4-9.9c3.8-7.8,5.9-14.9,6.6-21.2c0.6-6.3-0.4-12.6-3.1-18.7
		c-3-7.4-7.4-11.9-13.1-13.6c-5.3-1.6-10.6-2-15.7-1.4c-5.2,0.8-10.1,2.7-14.8,5.6c-7.2,4.4-13.5,10.6-19,18.8
		c-1.3,1.7-2.3,3.6-3.3,5.6c-0.5,0.8-1,1.6-1.5,2.5c-0.6,0.9-1.2,1.9-2,3.2c-0.5,0.5-1,0.7-1.6,0.7c-0.5-0.3-0.7-1-0.7-2
		c0-5.3,1.1-10.5,1.9-15.7c0.5-3.2,0.9-6.2,1.4-9c0.5-3.4,0.5-6.3,0-8.7c-0.5-3-2-4.5-4.7-4.5c-0.6,0-1.1,0.1-1.4,0.2
		c-3.9,0.6-7.2,2.2-9.9,4.8c-2.7,2.6-4.4,5.8-5.2,9.7c-0.5,3-0.9,6.1-1.4,9.4c-0.5,3.3-0.8,6.5-0.9,9.6c-0.2,8.1-0.6,16.2-1.4,24.2
		c-0.3,5.5-0.6,10.9-0.9,16.4c-1.2,20.9-1.2,42.1,0.2,62.9c0.5,7,1.1,13,1.8,18c1.1,7.6,2.7,15.2,5,22.6c1.7,5.5,4.1,16.6,10.6,18.4
		c1.7,0.5,3.2,0.3,4.5-0.5c1.4-0.8,2.1-1.7,2.2-2.7c0.3-3.8-1-8-1.4-11.8c-0.5-4.4-1-8.8-1.4-13.2c-0.9-9.7-0.9-22.9-0.1-39.7
		c0.3-6.3,0.7-12.4,1.1-18.5c1-15.1,2.8-31.4,6.3-46.1c0.7-2.9,1.5-5.7,2.3-8.6c0.9-2.8,1.9-5.6,3.2-8.4c1.2-2.8,2.7-5.8,4.5-8.9
		c2.2-4.1,4.5-7.5,6.8-10.4c2.7-3.4,6.6-6.1,10.8-7.3c4.6-1.4,8-0.8,9.8,3.7c6.7,16.3-1.8,37.8-11,51.4h-0.2c-1.6,1.9-3,3.6-4.2,5.3
		c-1.3,1.6-2.5,3.2-3.8,4.8c-1.3,1.6-2.5,3.2-3.8,4.8c-3.2,4.2-6.6,8.1-9.2,12.8c-0.9,1.7-0.9,3.2,0.2,4.5c1.4,1.9,3.1,2.9,5.2,3.1
		c3.1,0,6.2-1.3,9.2-4l2.6-2.6c1.1-1.4,2.3-2.7,3.8-3.8c8-6.6,15.1-6.4,21.4,0.5c1.3,1.6,2.3,3.2,3.3,4.8c0.9,1.6,1.8,3.3,2.6,5v0.2
		c1.1,2.2,1.5,3.7,1.3,4.6c-0.2,0.9-1.5,2-3.9,3.4c-3.6,2.2-7,4.4-10.1,6.6c-3.1,2.2-6.3,4.4-9.4,6.6c-4.5,3.3-8.6,7-12.2,11.3
		c-3.6,4.2-6.3,8.4-8,12.4c-3.6,8.8-4.3,16.9-2.1,24.4c0.3,1.3,1,2.6,2,4.1c1,1.5,2.4,2.9,4.1,4.1c1.7,1.3,3.9,2.2,6.7,2.8
		c2.7,0.6,6.1,0.7,10,0.2c2.2-0.3,4.1-0.7,5.7-1.2c1.6-0.5,3.2-1.1,4.8-1.8c1.6-0.7,3.2-1.6,4.9-2.6c1.7-1,3.8-2.2,6.1-3.6
		c2.5-1.6,5.1-3.5,7.7-5.7c2.7-2.3,5.2-4.8,7.7-7.6c1.6-1.9,2.9-3.6,4.1-5.2c1.2-1.6,2.2-3.2,3.2-4.9c0.9-1.7,1.8-3.5,2.7-5.4
		c0.9-1.9,1.8-4.1,2.7-6.6c2.5-6.3,3.5-13.5,3.1-21.8c-0.3-3.4-0.1-5.7,0.7-6.9c2.3-3.5,9.5-3.4,13.1-4.1c0.1,0.7,0.1,1.5,0.2,2.2
		c0.4,3.2,1.1,6.3,2,9.4c0.9,3.1,2.3,5.7,4.2,8.1c2,3.3,4.8,5.8,8.2,7.6c3.4,1.8,7.9,2.5,13.4,2c2.7-0.3,5.2-1.1,7.5-2.2
		c2.3-1.2,4.6-2.5,6.8-3.9c2.2-1.6,4.3-3.2,6.2-4.9c2.1-1.8,4.1-3.8,6.1-5.7c1.4,3.1,2.9,7.3,3.1,7.8c1.1,2.8,2.3,5.6,3.8,8.3
		c2.1,3.8,4.5,6.3,7.2,7.7c2.3,1.6,5.1,2.4,8.2,2.5c3.1,0.1,6.1-0.5,8.9-1.8c3.6-1.6,7.2-4.3,10.8-8.1c3.2-3.4,5.9-6.6,8.2-9.7
		c0,5.1,0.1,10.1,0.3,15.1c0.2,5.1,1,10.1,2.2,15.1c0.5,2.3,1.2,4.7,2.1,6.9c0.9,2.3,2.2,4.3,3.8,6.2c1.6,2,3.3,3,5.2,2.8
		c1.9-0.2,3.4-1.3,4.7-3.5c0.9-1.7,1.3-3.4,1.2-5.2c-0.8-6.6-0.1-12.8,2-18.7c2.1-5.9,4.6-11.6,7.4-17.3c1.7-3.4,3.6-6.8,5.6-10.2
		c2-3.4,4.5-6.4,7.5-9c2.2-2,4.5-3.8,7-5.3c2.5-1.5,5.3-2.4,8.4-2.7c2.7-0.3,5.2,0,7.5,1.1c2.3,1,3.8,2.8,4.2,5.3
		c0.3,2.2-0.2,3.7-1.6,4.6c-1.4,0.9-2.7,1.8-4,2.7c-0.3,0.5-0.9,1-1.9,1.6c-5.9,4.4-11.5,9.2-16.7,14.4c-5.2,5.2-9.5,11.2-13.1,18
		c-3,5.3-3.4,10.7-1.4,16.2c2.5,5,8,7,16.4,6.1c3.6-0.5,7.1-1.4,10.4-2.8c3.4-1.4,6.6-3,9.7-4.7c14.8-8.1,26.8-29.8,24.2-46.9
		c-0.4-2.6,0.8-4.8,3.4-5.6c3.3-1,7.2-1.8,10.6-2.5c0.1,0.5,0.2,1,0.3,1.5c0.8,3.1,2.2,6.2,4.2,9.2c2,3,4.4,5.5,7,7.5
		c2.3,1.9,4.8,3.1,7.3,3.8c2.5,0.6,5.4,0.6,8.7,0c4.1-0.8,7.8-2.4,11.3-4.8c3.4-2.4,6.6-5.2,9.4-8.3c2.2-2.3,4.4-4.7,6.6-7.2
		c2.2-2.4,4.1-5,5.9-7.6c-0.3,5.3-0.6,10.6-0.8,15.7c-0.2,5.2-0.7,10.3-1.3,15.5c-0.2,1.6-0.9,2.8-2.1,3.8c-1.3,0.9-2.5,1.9-3.8,2.8
		c-5.6,3.6-11,7.1-16.2,10.4c-5.2,3.4-10.3,7.4-15.3,12.1c-4.5,4.1-8.8,8.3-12.8,12.7c-4,4.4-7.4,9.3-10.2,14.8
		c-3.8,7-6.4,13.9-7.9,20.7c-1.5,6.7-1.2,13.8,0.8,21.4c2.2,8,5.8,13.6,10.8,16.9c5,3.3,10.8,4.6,17.4,4c4.8-0.8,9-2.2,12.6-4.2
		c3.5-2,6.5-4.5,9-7.3c2.5-2.8,4.6-5.9,6.3-9.2c1.7-3.3,3.4-6.5,4.9-9.6c3.6-8.3,6.3-16.4,8.1-24.4c1.8-8,3.6-15.7,5.3-23.2
		c1.3-5.2,2.3-10.4,3.2-15.7c0.9-5.3,1.8-10.6,2.7-16c0.5-3.1,2.2-5.9,5.2-8.5c3.6-3,6.5-5.4,8.8-7.3c2.3-1.9,4.2-3.7,5.9-5.5
		c1.6-1.8,3.2-3.8,4.7-5.9c1.5-2.1,3.2-4.8,5-8.1c0.6-0.9,1.2-2.1,1.6-3.4c0.5-1.3,0.8-2.6,1.1-3.9c0.2-1.2,0.3-2.4,0.2-3.4
		C518.5,241.2,518.2,240.6,517.6,240.2z M163.3,274.9c-0.1,6-3.6,14.9-4.8,17.5c-3.6,8-9.7,15.4-17.1,20.1c-2.2,1.4-4.1,2.1-5.6,2.1
		c-1.4,0-2.7-0.4-3.8-1.2c-2.8-2-4-5.1-3.5-9.2c0.8-4.8,2.6-8.9,5.4-12.2c6.9-8.1,13.8-14.8,20.9-20c1.1-0.5,2.1-1.1,3.1-1.9
		c0.8-0.3,1.5-0.5,2.1-0.7c0.6-0.2,1.2-0.1,1.6,0.2C162.8,270.7,163.3,272.6,163.3,274.9z M373.8,288.7c-3.1,4.5-8.3,7.6-15.8,9.5
		c-0.8,0.3-1.6,0.5-2.5,0.7c-0.9,0.2-1.7-0.2-2.5-0.9c-0.6-0.9-0.8-1.9-0.6-2.8c0.2-0.9,0.6-1.9,1.1-2.8c0.5-0.6,0.9-1.3,1.4-1.9
		c0.5-0.6,0.9-1.3,1.4-1.9c3.1-3.3,6.4-6.5,9.7-9.5c3.4-3.1,6.8-6.1,10.4-9c0.9-0.9,1.8-1.3,2.6-1.2c0.8,0.3,1.1,0.7,1.1,1.2
		c-0.1,0.5,0,0.9,0.1,1.4C379,278.5,376.9,284.2,373.8,288.7z M471.3,300.2c-0.2,0.7-0.2,1.4-0.2,2c-0.8,3.1-1.4,6.3-1.9,9.6
		c-0.5,3.3-1,6.6-1.6,9.9c-1.4,8-3.4,15.8-5.9,23.4c-2.5,7.6-6,14.9-10.6,21.9c-0.8,0.9-1.5,1.9-2.2,2.9c-0.7,1-1.4,2-2.2,2.9
		c-2.5,2.7-5.3,3.6-8.4,2.9c-3.1-0.7-5.2-2.9-6.3-6.5c-1.3-4.2-1.4-8.8-0.5-13.8c2.8-15.6,10.2-29.1,22.1-40.4
		c2.7-2.3,5.2-4.7,7.6-7.2c2.4-2.4,4.9-4.8,7.4-7.2c0.3-0.3,0.7-0.7,1.3-1.3c0.5-0.5,1-0.7,1.3-0.6
		C471.4,299.1,471.5,299.5,471.3,300.2z M270,445.1H141.5c-8,0-15.3-5.8-16-13.8c-0.8-9,6.3-16.6,15.2-16.6H270V445.1z"/>
</g>
</svg>
