<?xml version="1.0" encoding="utf-8"?>
<!-- Generator: Adobe Illustrator 22.0.0, SVG Export Plug-In . SVG Version: 6.00 Build 0)  -->
<svg version="1.1" id="Calque_1" xmlns="http://www.w3.org/2000/svg" xmlns:xlink="http://www.w3.org/1999/xlink" x="0px" y="0px"
	 viewBox="0 0 432 432" style="enable-background:new 0 0 432 432;" xml:space="preserve">
<style type="text/css">
	.st0{fill:#E5DAC7;}
	.st1{fill:#FAF3E3;}
	.st2{fill:#C7B29A;}
	.st3{fill:#972021;}
	.st4{fill:#E9EAE4;}
	.st5{fill:#8C633A;}
	.st6{fill:#F39323;}
	.st7{fill:#ED6F71;}
	.st8{fill:#FFFFFF;}
	.st9{fill:#B6CE3F;}
	.st10{fill:#95AF23;}
	.st11{fill:#18B0C1;}
	.st12{fill:#C2E1D1;}
	.st13{fill:#9F1E29;}
	.st14{fill:#E6E9EA;}
	.st15{fill:#020203;}
	.st16{fill:#4D9564;}
	.st17{fill:#754D24;}
	.st18{fill:#A67D52;}
	.st19{fill:#F0D2B5;}
	.st20{fill:#E1BC9E;}
	.st21{fill:#97509A;}
	.st22{fill:#603914;}
	.st23{fill:#E83078;}
	.st24{fill:#E89125;}
	.st25{fill:#89BF4A;}
	.st26{fill:#82171C;}
	.st27{fill:#6CC2EE;}
	.st28{fill:#1861A9;}
	.st29{fill:#E00825;}
	.st30{fill:#109F3D;}
	.st31{fill:#808181;}
	.st32{fill:#D79A5D;}
	.st33{fill:#C68448;}
	.st34{fill:#D62416;}
	.st35{fill:#F9D61D;}
	.st36{fill:#A9191E;}
	.st37{fill:#F3E4E7;}
	.st38{fill:none;}
	.st39{fill:#E8CAA3;}
	.st40{fill:#64121D;}
	.st41{fill:#15A57E;}
	.st42{fill:#167157;}
	.st43{fill:#CF8916;}
	.st44{fill:#B26F14;}
	.st45{fill:#901D81;}
	.st46{fill:#612261;}
	.st47{fill:#B88E5C;}
	.st48{fill:#EBDCC8;}
	.st49{fill:#F3A0BE;}
	.st50{fill:#FAD7E3;}
	.st51{fill:#EAD797;}
	.st52{fill:#E18CAC;}
	.st53{fill:#A8D9DD;}
	.st54{fill:#67C2C6;}
	.st55{fill:#4EADAD;}
	.st56{fill:#CDCCCC;}
	.st57{fill:#D4C3B3;}
	.st58{fill:#CAB9A7;}
	.st59{fill:#C69C6C;}
	.st60{fill:#D7C5B3;}
	.st61{fill:#96877C;}
	.st62{fill:#EFE8E9;}
	.st63{fill:#B4B4B4;}
	.st64{fill:#F0CC53;}
	.st65{fill:#EE7D54;}
	.st66{fill:#F5D29D;}
	.st67{fill:#5D403F;}
	.st68{fill:#F9CBCC;}
	.st69{fill:#F6DEB8;}
	.st70{fill:#D6A14D;}
	.st71{fill:#B09878;}
	.st72{fill:#C1292E;}
	.st73{fill:#5B4841;}
	.st74{fill:#E0C399;}
	.st75{fill:#EBDA8C;}
	.st76{fill:#363A3D;}
	.st77{fill:#BFC1D7;}
	.st78{fill:#7188BA;}
	.st79{fill:#A34F4D;}
	.st80{fill:#D9CD7A;}
	.st81{fill:#D9AF66;}
	.st82{fill:#E6C776;}
	.st83{fill:#575756;}
	.st84{fill:#C3BF5B;}
	.st85{fill:#63622A;}
	.st86{fill:#E1AE9D;}
	.st87{fill:#D9C7AB;}
	.st88{fill:#B3625C;}
	.st89{fill:#D4BB78;}
	.st90{fill:#009245;}
	.st91{fill:#0B7B3A;}
	.st92{fill:#911A29;}
	.st93{fill:#571419;}
	.st94{fill:#9A9999;}
	.st95{fill:#A81922;}
	.st96{fill:#A3282E;}
	.st97{fill:#B3713B;}
	.st98{fill:#998675;}
	.st99{fill:#6189B1;}
	.st100{fill:#E0EDF3;}
	.st101{fill:#A5C0DF;}
	.st102{fill:#DBDBDB;}
	.st103{fill:#067838;}
	.st104{fill:#E5AEBF;}
	.st105{fill:#9982BC;}
	.st106{fill:#E7E6E6;}
	.st107{fill:#706F6F;}
	.st108{fill:#746458;}
	.st109{fill:#412413;}
	.st110{fill:#544842;}
	.st111{fill:#DAA405;}
	.st112{fill:#D06C5D;}
	.st113{fill:#8C694B;}
	.st114{fill:#C8C8CE;}
	.st115{fill:#D286A7;}
	.st116{fill:#C6CCCC;}
	.st117{fill:#A65F42;}
	.st118{fill:#343434;}
	.st119{fill:#A56E45;}
	.st120{fill:#F2F2F2;}
	.st121{fill:#8AC18A;}
	.st122{fill:#4B6678;}
	.st123{fill:#324C5B;}
	.st124{fill:#97AFBC;}
	.st125{fill:#B27D63;}
	.st126{fill:#6A737A;}
	.st127{fill:#72403F;}
	.st128{fill:#8D7968;}
	.st129{fill:#1B1B1B;}
	.st130{fill:#6B141A;}
	.st131{fill:#E4DCCC;}
	.st132{fill:#B33949;}
	.st133{fill:#6D141B;}
	.st134{fill:#911825;}
	.st135{fill:#821622;}
	.st136{fill:#1F1D1D;}
	.st137{fill:#CC1417;}
	.st138{fill:#69362D;}
	.st139{fill:#ECC9AE;}
	.st140{fill:#471E19;}
	.st141{fill:#2B1D1C;}
	.st142{fill:#BE1622;}
	.st143{fill:#E6332A;}
	.st144{fill:#D8EAF8;}
	.st145{fill:#D4AE8E;}
	.st146{fill:#883B4C;}
	.st147{fill:#C74A54;}
	.st148{fill:#F2959C;}
	.st149{fill:#3C3C3B;}
</style>
<g>
	<g>
		<g>
			
				<rect x="84.9" y="164.2" transform="matrix(0.9991 -4.123492e-02 4.123492e-02 0.9991 -8.932 3.7239)" class="st56" width="1.8" height="108.3"/>
		</g>
		<g>
			<path class="st49" d="M84.6,83.2c-20.2,0-31.4,17.7-30.6,35.3c0.9,17.4,18,41,29,41.5c-0.1,0.9-0.1,3.4-0.2,3.8
				c-0.7,0.2-1.9,0.6-1.9,1.1c0,0.6,1.6,1.5,2.6,1.5c1.1,0,2.7-0.9,2.7-1.5c0-0.5-1.2-0.9-1.9-1c-0.1-0.6-0.2-3.1-0.2-3.8
				c11-1,29.2-20.1,30.7-38.4C116.5,102.8,104.8,83.2,84.6,83.2z"/>
			<path class="st50" d="M89.8,156.3c-0.2-0.2-0.4-0.4-0.8-0.4c-0.2,0-0.5,0-0.7,0c-0.5,0.1-0.9,0.3-1.5,0.6
				c-1.3,0.8-2.4,1.9-3.2,3.2c0,0-0.1,0.1-0.1,0.1c0,0,0,0-0.1,0c-0.3-0.3-0.6-0.5-1-0.7c-1.5-0.7-3-0.7-4.4,0.2
				c-0.2,0.1-0.4,0.3-0.6,0.5c-0.3,0.3-0.5,0.7-0.4,1.1c0.1,0.4,0.4,0.7,0.8,0.8c0.3,0.1,0.7,0.2,1,0.2c0.5,0,1,0,1.5-0.1
				c0.5-0.1,1.1-0.1,1.6-0.2l0.4-0.1c0,0,0.1,0,0.1,0c0,0,0,0,0,0l-0.3,0.3c-0.3,0.2-0.6,0.5-1,0.7c-0.9,0.7-1.7,1.6-2.2,2.6
				c-0.3,0.6-0.6,1.4-0.8,2.3c-0.3,1.1-0.5,2.3-0.9,3.5c-0.6,2-1.6,3.7-2.9,5c-0.7,0.7-1.5,1.4-2.2,2.1l-0.1,0.1
				c-0.3,0.2-0.5,0.5-0.8,0.7l-0.2,0.2c-0.3,0.3-0.6,0.4-1,0.5c-0.1,0-0.2,0-0.3,0.1c-0.1,0.1-0.2,0.3-0.2,0.4
				c0,0.2,0.1,0.4,0.3,0.4c0.1,0,0.3,0.1,0.5,0.1c0.4,0,0.7-0.1,1-0.4l0.1-0.1c0.3-0.2,0.6-0.4,0.9-0.7c0.9-0.9,2-1.8,2.9-2.8
				c0.7-0.7,1.3-1.6,1.9-2.6c0.6-1.1,1-2.2,1.3-3.4c0.2-0.9,0.5-2,0.8-3.3c0.3-1.5,1-2.7,2.1-3.7c0.2-0.2,0.5-0.4,0.7-0.6
				c-0.1,0.1-0.2,0.3-0.3,0.4c-0.5,0.7-1.1,1.4-1.5,2.2c-0.6,1.1-0.8,2.3-0.6,3.5l0.1,0.7c0.1,0.5,0.2,1,0.3,1.5
				c0.2,1,0.1,1.9-0.3,2.8c-0.3,0.6-0.6,1.3-0.9,2c-0.5,1.1-1,2-1.3,3.1c-0.3,1.2-0.4,2.3-0.2,3.4c0.1,0.7,0.3,1.4,0.6,2.2
				c0.1,0.3,0.2,0.5,0.3,0.8c0.2,0.4,0.3,0.9,0.5,1.3c0.2,0.6,0.4,1.4,0.5,2.2c0,0.7,0,1.5,0,2.3l0,0.2c0,0.6-0.1,1.3-0.2,2
				c-0.1,0.7-0.4,1.2-0.7,1.7l-0.1,0.1c0,0-0.1,0.1-0.1,0.1c-0.1,0.2-0.1,0.4,0,0.6c0.1,0.1,0.2,0.2,0.4,0.2c0.1,0,0.2,0,0.2-0.1
				c0.1,0,0.2-0.1,0.2-0.2c0.5-0.4,0.8-0.9,1-1.7c0.3-1.1,0.4-2.2,0.4-3.1c0-0.6,0-1.3,0-1.9l0-0.3c0-0.3,0-0.5-0.1-0.8
				c-0.1-0.9-0.4-1.8-0.7-2.7c-0.2-0.7-0.5-1.5-0.8-2.3c-0.2-0.6-0.3-1.2-0.3-1.9c0-0.5,0.1-1,0.2-1.5c0.2-0.8,0.5-1.6,1-2.7
				l0.3-0.7c0.3-0.5,0.5-1.1,0.8-1.6c0.6-1.2,0.7-2.5,0.4-3.9c-0.1-0.3-0.1-0.6-0.2-0.9c-0.1-0.4-0.2-0.8-0.2-1.2
				c-0.2-0.9-0.1-1.7,0.3-2.5c0.3-0.5,0.6-1,1-1.6c0.2-0.2,0.3-0.5,0.5-0.7c0.2-0.3,0.5-0.6,0.7-0.9c0.3-0.4,0.7-1,0.7-1.7l0,0
				c0.1-0.1,0.2-0.2,0.3-0.3c0.2-0.2,0.2-0.4,0.2-0.5l0.2-0.1c0.7-0.2,1.4-0.5,2.1-0.8c0.7-0.4,1.3-0.8,1.9-1.3
				c0.5-0.4,0.7-0.9,0.8-1.4C90,156.8,90,156.5,89.8,156.3z M84.5,159.7L84.5,159.7L84.5,159.7L84.5,159.7L84.5,159.7z M88,157.9
				c-0.5,0.4-1.2,0.8-2.1,1.2c-0.1,0-0.2,0.1-0.4,0.1l-0.4,0.1c0.6-0.8,1.3-1.4,2-1.8c0.5-0.3,0.9-0.5,1.3-0.6c0.1,0,0.1,0,0.2,0
				c0,0,0,0,0.1,0c-0.1,0.2-0.2,0.4-0.3,0.5C88.4,157.6,88.2,157.8,88,157.9z M78.2,160.6C78.2,160.6,78.2,160.6,78.2,160.6
				c0.1-0.1,0.1-0.2,0.2-0.2c1-0.7,1.9-0.9,3-0.6c0.4,0.1,0.7,0.3,1.1,0.5c0,0,0,0.1,0,0.1c-0.1,0-0.1,0-0.2,0
				c-0.8,0.1-1.6,0.2-2.6,0.3c-0.3,0-0.6,0-0.9,0l-0.2,0C78.4,160.7,78.3,160.7,78.2,160.6C78.2,160.6,78.2,160.6,78.2,160.6z"/>
		</g>
	</g>
	<g>
		<g>
			
				<rect x="57.6" y="293.5" transform="matrix(0.1429 -0.9897 0.9897 0.1429 -195.6259 362.9454)" class="st56" width="108.3" height="1.8"/>
		</g>
		<g>
			<path class="st54" d="M133.9,161c-20-3.3-33.9,12.3-36,29.8c-2,17.3,10.9,43.4,21.8,45.7c-0.2,0.9-0.7,3.3-0.8,3.7
				c-0.7,0-2,0.3-2,0.7c-0.1,0.6,1.3,1.7,2.4,1.9c1.1,0.2,2.8-0.4,2.9-1c0.1-0.5-1.1-1.1-1.7-1.3c0-0.6,0.4-3.1,0.5-3.8
				c11.1,0.9,32.1-15,36.6-32.8C162.2,185.6,153.9,164.3,133.9,161z"/>
			<path class="st53" d="M130,235c-0.3-0.2-0.7-0.3-1.1-0.4c-0.7-0.2-1.5-0.2-2.4-0.1c-2.1,0.2-4,0.8-6,1.9c-0.2-0.7-0.5-1.4-1-2
				c-0.7-0.8-1.5-1.4-2.4-1.8c-0.5-0.2-1.1-0.4-1.6-0.4c-0.6,0-1.2,0.1-1.7,0.4c-0.8,0.4-1.1,1.3-0.7,2.1c0.1,0.3,0.3,0.5,0.6,0.8
				c0.6,0.7,1.4,1.3,2.4,1.7c0.6,0.3,1.2,0.4,1.6,0.5c0.3,0.1,0.6,0.1,0.9,0.1l0.5,0.1c0,0,0.1,0,0.1,0c0.1,0,0.1,0.1,0.2,0.2
				c0,0,0,0,0,0c-0.1,0.2-0.2,0.3-0.3,0.4c-0.5,0.6-1,1.2-1.5,1.7c-0.3,0.3-0.6,0.6-0.9,0.9c-0.3,0.3-0.6,0.7-1,1
				c-0.9,0.9-1.5,1.7-1.9,2.6l-0.2,0.4c-0.1,0.2-0.2,0.5-0.4,0.7c-0.3,0.6-0.6,1.2-0.8,1.8c-0.1,0.1-0.1,0.3-0.1,0.4
				c0,0.2,0.1,0.4,0.3,0.4c0.2,0.1,0.4,0,0.5-0.1c0.1-0.1,0.2-0.2,0.3-0.4c0.3-0.7,0.7-1.4,1-2.2c0.6-1.2,1.3-2.3,2.4-3.4
				c0.4-0.5,0.9-0.9,1.3-1.3c0.5-0.5,0.9-1,1.3-1.5c0,0.1-0.1,0.3-0.1,0.4c-0.5,1.2-0.9,2.3-1.2,3.4c-0.2,1-0.4,1.9-0.4,2.7
				c0,1.9,0.3,3.7,1.1,5.5c0.4,1,0.9,2,1.4,3.1l0.6,1.3c0.9,2,1.9,4,2.7,6.1c0,0.1,0.1,0.1,0.1,0.2c0.1,0.2,0.2,0.3,0.4,0.3
				c0.1,0,0.2,0,0.2,0c0.2-0.1,0.4-0.3,0.3-0.6c0-0.2-0.1-0.3-0.1-0.4c-0.6-1.5-1.2-2.9-1.7-4.1c-0.4-1-0.9-1.9-1.3-2.9
				c-0.4-0.9-0.8-1.8-1.3-2.7c-0.4-0.9-0.7-1.8-1-3.1c-0.4-1.8-0.4-3.8,0.1-5.7c0.3-0.9,0.6-1.9,0.9-2.6c0.2-0.5,0.4-1.1,0.4-1.8
				c0,0,0-0.1,0-0.1c0,0,0.1,0.1,0.1,0.1l0.1,0.1c0.7,0.7,1.4,1.3,2.1,1.8c1,0.7,2,1,3.1,1c1.4,0,2.7-0.5,3.8-1.5
				c0.6-0.5,1-1,1.3-1.6C131.7,236.9,131.3,235.7,130,235z M121.3,237.4c0.2-0.2,0.2-0.4,0.1-0.5c1.6-0.7,3.1-1.2,4.5-1.4
				c0.7-0.1,1.4-0.1,2-0.1c0.6,0.1,1.1,0.2,1.5,0.5c0.4,0.3,0.7,0.7,0.7,1.1c0,0.3-0.1,0.6-0.3,0.9c-0.2,0.4-0.6,0.8-1,1.2
				c-1,0.8-2,1.1-3.1,1.1c-0.7,0-1.4-0.2-2.1-0.7c-0.5-0.3-1-0.7-1.6-1.3c-0.2-0.2-0.4-0.4-0.6-0.6l-0.2-0.2
				C121.3,237.5,121.3,237.5,121.3,237.4z M119.6,236.5C119.5,236.5,119.5,236.6,119.6,236.5L119.6,236.5c-0.1,0.1-0.1,0.2-0.3,0.1
				c-0.2,0-0.5-0.1-0.7-0.1c-0.4-0.1-0.9-0.2-1.3-0.3c-1.1-0.3-2-0.9-2.8-1.7c-0.1-0.1-0.1-0.2-0.2-0.3c-0.1-0.1-0.2-0.4-0.1-0.6
				c0.1-0.2,0.3-0.3,0.4-0.4c0.3-0.1,0.6-0.2,1-0.2c0.1,0,0.2,0,0.3,0c0.4,0.1,0.7,0.2,1.1,0.4c0.6,0.3,1.2,0.8,1.6,1.3
				C119,235.3,119.4,235.9,119.6,236.5z"/>
		</g>
	</g>
</g>
<g>
	<g>
		<g>
			<path class="st56" d="M231.8,161.3c-32,0-61.1-3.9-78.3-12.9l0.8-1.4c21.5,11.3,64.8,15.5,115.7,11
				c48.2-4.2,90.2-15.1,107.2-27.9l1,1.3C354.7,148.9,288.8,161.3,231.8,161.3z"/>
		</g>
		<g>
			<polygon class="st54" points="346.8,142 363.9,136.8 358.8,150.5 353.7,164.3 341.7,155.8 329.7,147.3 			"/>
			<polygon class="st53" points="290.8,154.6 308.6,152.2 301.3,164.9 294,177.7 283.6,167.3 273.1,157 			"/>
			<polygon class="st54" points="235.3,158.4 253.2,158.2 244.4,169.9 235.5,181.6 226.5,170.1 217.5,158.5 			"/>
			<polygon class="st53" points="179.9,153.2 197.3,157.1 186.1,166.5 174.8,175.9 168.6,162.6 162.4,149.3 			"/>
		</g>
	</g>
	<g>
		<g>
			<path class="st56" d="M299.7,117.5c-57,0-122.9-12.3-146.2-29.9l1-1.3c16.9,12.7,59,23.7,107.2,27.9c50.9,4.4,94.1,0.3,115.7-11
				l0.8,1.4C360.8,113.6,331.6,117.5,299.7,117.5z"/>
		</g>
		<g>
			<polygon class="st49" points="354.1,110.2 356.9,131.7 351.1,129.7 345.1,127.8 339.8,131.2 334.5,134.6 334.5,134.6 
				331.7,113.1 			"/>
			<polygon class="st50" points="298.1,115.1 297.4,136.8 291.9,133.9 286.3,131 280.6,133.5 274.8,136 274.8,136 275.6,114.3 			
				"/>
			<polygon class="st49" points="241.9,110.8 238.6,132.2 233.5,128.7 228.3,125.2 222.3,126.9 216.3,128.7 216.3,128.7 
				219.6,107.3 			"/>
			<polygon class="st50" points="190.6,100.9 183.4,121.3 179,116.9 174.6,112.5 168.3,113.1 162.1,113.7 162.1,113.7 169.3,93.3 
							"/>
		</g>
	</g>
</g>
<g>
	<g>
		<g>
			<path class="st56" d="M191.7,266.4c-4.2,12.8,1.5,26.1,2.8,38.9c0.7,7,0.7,14.2-0.9,21.1c-1.6,7.2-5.1,13.7-8.7,20.1
				c-0.6,1,1,2,1.6,0.9c3.1-5.7,6.3-11.4,8.1-17.7c1.9-6.5,2.4-13.3,2-20c-0.7-14-7.7-29.1-3.2-42.9
				C193.9,265.8,192.1,265.3,191.7,266.4L191.7,266.4z"/>
		</g>
		<g>
			<path class="st54" d="M210.7,231.6c2,1.8,2.7,4.2,3.2,6.6c0.4,2.1,0.8,4.2,0.9,6.3c0.3,4.2-1.2,7.8-3.9,10.9
				c-3.4,4-7.8,6.3-12.8,7.6c-1.1,0.3-2.2,0.4-3.4,0.6c0.2,0.6,0.6,1.2,1,1.6c1.1,1.2,0.9,2.5-1.1,2.7c-1.2,0.1-2.4,0-3.6-0.1
				c-0.3,0-0.5-0.1-0.8-0.2c-0.7-0.4-0.9-0.9-0.5-1.6c0.3-0.5,0.7-0.9,1-1.4c0.2-0.3,0.4-0.6,0.6-0.9c-1.5-0.2-3-0.4-4.4-0.7
				c-2.8-0.6-5.5-1.5-8-2.8c-0.5-0.2-0.9-0.5-1.4-0.8c-1-0.6-1.7-1.5-1.9-2.7c-0.5-2.2-1-4.4-1.4-6.6c-0.7-4.3-1.1-8.7-1.4-13.1
				c-0.1-2.8-0.2-5.6-0.3-8.5c0-2.7-0.1-5.3,0.1-8c0.2-3.2,0.6-6.4,1.1-9.6c0.5-3.2,2.3-5.7,5-7.5c4-2.6,8.2-3.8,13-3.6
				c7.4,0.3,13.5,3.5,18.4,8.7c4.5,4.8,5.4,10.5,3.6,16.7C213.3,227.6,212.2,229.7,210.7,231.6z M191.5,238.5
				c-0.8,0.2-1.5,0.3-2.3,0.5c-0.8,0.2-1.2,0.8-1.3,1.7c0,1.3,0.3,2.6,0.7,3.8c0.5,1.3,1.3,1.8,2.7,1.8c1.6,0,3.1-0.5,4.6-1.2
				c1.9-1,2.8-2.3,0.6-4.6C195.1,239.2,193.4,238.7,191.5,238.5z M188.8,218.3c0.2,1,0.3,2,0.6,3c0.3,1,1,1.9,2.1,2
				c2,0.2,3.8-0.4,5.2-1.9c0.7-0.8,0.8-1.7,0.4-2.7c-0.4-1-1.1-1.8-2.1-2.2c-1.3-0.5-2.6-0.8-4-0.6
				C189.1,216.1,188.9,216.4,188.8,218.3z"/>
			<g>
				<path class="st53" d="M180,217.7c0-1.8,0.2-3.5,0.8-5.2c0.6-2.1,1.8-3.9,3.4-5.3c0.2-0.2,0.5-0.4,0.8-0.6c0.5-0.3,1-0.3,1.2,0.1
					c0.3,0.4,0.2,0.8-0.2,1.2c0,0-0.1,0-0.1,0.1c-2.1,1.5-3.2,3.6-3.8,6.1c-0.3,1.5-0.4,3.1-0.4,4.7c0,0.3,0,0.7,0,1
					c0,0.6-0.4,0.9-0.8,1c-0.5,0-0.8-0.3-0.8-0.9C180,219.1,180,218.4,180,217.7z"/>
				<path class="st53" d="M207.9,246.6c0,3.4-1.5,5.9-4,8c-0.5,0.4-1,0.8-1.6,1.2c-0.5,0.3-1,0.2-1.2-0.2c-0.2-0.4-0.2-0.8,0.2-1.1
					c0.4-0.4,0.9-0.7,1.4-1c2.7-2.2,4-5,3.4-8.5c0-0.1-0.1-0.3-0.1-0.4c0-0.5,0.2-0.9,0.7-1c0.5-0.1,0.9,0.2,1,0.7
					C207.7,245.1,207.8,245.9,207.9,246.6z"/>
			</g>
		</g>
	</g>
	<g>
		<g>
			<path class="st56" d="M285.1,267c9.2,26.4-9.7,52.9-3.6,79.6c0.4,1.5,2.7,0.9,2.3-0.6c-6.2-26.7,12.8-53.1,3.6-79.6
				C286.9,264.9,284.5,265.5,285.1,267L285.1,267z"/>
		</g>
		<g>
			<path class="st54" d="M304.3,231.6c2,1.8,2.7,4.2,3.2,6.6c0.4,2.1,0.8,4.2,0.9,6.3c0.3,4.2-1.2,7.8-3.9,10.9
				c-3.4,4-7.8,6.3-12.8,7.6c-1.1,0.3-2.2,0.4-3.4,0.6c0.2,0.6,0.6,1.2,1,1.6c1.1,1.2,0.9,2.5-1.1,2.7c-1.2,0.1-2.4,0-3.6-0.1
				c-0.3,0-0.5-0.1-0.8-0.2c-0.7-0.4-0.9-0.9-0.5-1.6c0.3-0.5,0.7-0.9,1-1.4c0.2-0.3,0.4-0.6,0.6-0.9c-1.5-0.2-3-0.4-4.4-0.7
				c-2.8-0.6-5.5-1.5-8-2.8c-0.5-0.2-0.9-0.5-1.4-0.8c-1-0.6-1.7-1.5-1.9-2.7c-0.5-2.2-1-4.4-1.4-6.6c-0.7-4.3-1.1-8.7-1.4-13.1
				c-0.1-2.8-0.2-5.6-0.3-8.5c0-2.7-0.1-5.3,0.1-8c0.2-3.2,0.6-6.4,1.1-9.6c0.5-3.2,2.3-5.7,5-7.5c4-2.6,8.2-3.8,13-3.6
				c7.4,0.3,13.5,3.5,18.4,8.7c4.5,4.8,5.4,10.5,3.6,16.7C306.9,227.6,305.8,229.7,304.3,231.6z M285.1,238.5
				c-0.8,0.2-1.5,0.3-2.3,0.5c-0.8,0.2-1.2,0.8-1.3,1.7c0,1.3,0.3,2.6,0.7,3.8c0.5,1.3,1.3,1.8,2.7,1.8c1.6,0,3.1-0.5,4.6-1.2
				c1.9-1,2.8-2.3,0.6-4.6C288.7,239.2,287,238.7,285.1,238.5z M282.4,218.3c0.2,1,0.3,2,0.6,3c0.3,1,1,1.9,2.1,2
				c2,0.2,3.8-0.4,5.2-1.9c0.7-0.8,0.8-1.7,0.4-2.7c-0.4-1-1.1-1.8-2.1-2.2c-1.3-0.5-2.6-0.8-4-0.6
				C282.7,216.1,282.5,216.4,282.4,218.3z"/>
			<g>
				<path class="st53" d="M273.6,217.7c0-1.8,0.2-3.5,0.8-5.2c0.6-2.1,1.8-3.9,3.4-5.3c0.2-0.2,0.5-0.4,0.8-0.6
					c0.5-0.3,1-0.3,1.2,0.1c0.3,0.4,0.2,0.8-0.2,1.2c0,0-0.1,0-0.1,0.1c-2.1,1.5-3.2,3.6-3.8,6.1c-0.3,1.5-0.4,3.1-0.4,4.7
					c0,0.3,0,0.7,0,1c0,0.6-0.4,0.9-0.8,1c-0.5,0-0.8-0.3-0.8-0.9C273.6,219.1,273.6,218.4,273.6,217.7z"/>
				<path class="st53" d="M301.5,246.6c0,3.4-1.5,5.9-4,8c-0.5,0.4-1,0.8-1.6,1.2c-0.5,0.3-1,0.2-1.2-0.2c-0.2-0.4-0.2-0.8,0.2-1.1
					c0.4-0.4,0.9-0.7,1.4-1c2.7-2.2,4-5,3.4-8.5c0-0.1-0.1-0.3-0.1-0.4c0-0.5,0.2-0.9,0.7-1c0.5-0.1,0.9,0.2,1,0.7
					C301.3,245.1,301.4,245.9,301.5,246.6z"/>
			</g>
		</g>
	</g>
	<g>
		<g>
			<path class="st56" d="M253.4,266.4c1.7,7.4-0.5,14.5-2.5,21.6c-1.8,6.4-3,12.6-2.5,19.3c0.9,13.6,6.4,26.3,8,39.8
				c0.2,1.5,2.6,1.6,2.4,0c-1.6-13.9-7.5-27.2-8-41.2c-0.5-13.7,8-26.5,5-40.1C255.4,264.2,253.1,264.8,253.4,266.4L253.4,266.4z"/>
		</g>
		<g>
			<path class="st49" d="M253.1,263.1c-0.9-0.2-1.7-0.3-2.4-0.5c-0.5-0.1-1-0.3-1.4-0.4c-1.1-0.4-1.9-1.2-2.3-2.4
				c-0.4-1.1-0.6-2.2-1-3.3c-0.4-1.1-0.7-2.2-1.3-3.2c-0.9-1.6-2.2-2.8-4.2-3.1c-1.7-0.2-2.8,0.3-3.4,1.9c-0.5,1.3-0.8,2.6-1.2,3.9
				c-0.4,1.2-0.7,2.4-1.1,3.5c-0.6,1.7-1.9,2.8-3.7,3.2c-2,0.5-3.9,0.7-5.9,0.4c-3.3-0.5-5.2-2.5-5.4-5.8c-0.2-2.4-0.2-4.9-0.1-7.4
				c0.1-2.9,0.3-5.9,0.7-8.7c1.6-10.7,4-21.3,8.2-31.4c1.1-2.6,2.5-5.1,4.3-7.3c2-2.5,4.6-3.5,7.7-3.2c2.1,0.1,3.9,0.9,5.4,2.3
				c1.2,1,2.1,2.2,3,3.5c1.7,2.8,3,5.7,4,8.8c1.7,5.7,3.7,11.4,5.7,17c2.1,6.2,3.9,12.5,5.2,18.9c0.5,2.4,0.9,4.8,0.7,7.2
				c0,0.8-0.2,1.6-0.4,2.4c-0.4,1.7-1.5,2.8-3.2,3.2c-1.1,0.3-2.2,0.4-3.2,0.6c-0.5,0.1-0.9,0.1-1.4,0.1c0,0.4,0.3,0.6,0.5,0.9
				c0.4,0.5,0.9,1,1.2,1.6c0.5,0.9,0.2,1.7-0.9,2c-0.5,0.1-1.1,0.2-1.7,0.2c-0.9,0-1.7,0-2.6,0c-0.4,0-0.8-0.1-1.2-0.2
				c-0.9-0.3-1.2-1.2-0.7-2c0.2-0.3,0.4-0.5,0.6-0.8C252.2,264.4,252.6,263.8,253.1,263.1z M240.9,235.3c0.9-0.1,1.7-0.2,2.5-0.3
				c1.1-0.2,1.7-0.9,1.9-2c0.1-0.4,0.1-0.8,0.1-1.2c-0.1-1-0.2-2.1-0.4-3.1c-0.5-2-1-4-2.2-5.7c-1.2-1.8-2.2-1.7-3.2,0.1
				c-0.5,0.9-0.9,1.9-1.2,2.9c-0.8,2.4-1.3,4.8-1.4,7.3c0,1,0.2,1.3,1.2,1.5C239.1,235.2,240,235.2,240.9,235.3z"/>
			<g>
				<path class="st50" d="M223.1,247.8c0.3-3.6,0.7-7.6,1.1-11.5c0-0.2,0-0.3,0.1-0.5c0.2-0.4,0.4-0.6,0.9-0.5
					c0.4,0.1,0.7,0.3,0.7,0.7c0,0.5,0,1-0.1,1.5c-0.6,4.9-0.9,9.8-1,14.7c0,0.9-0.3,1.2-0.8,1.3c-0.6,0-0.9-0.4-0.9-1.3
					C223.1,250.9,223.1,249.5,223.1,247.8z"/>
				<path class="st50" d="M240.9,202.6c0.3,0.1,0.8,0.2,1.2,0.4c2.1,0.9,3.5,2.5,4.7,4.3c0.7,1.1,1.2,2.2,1.8,3.3
					c0.6,1.3,1.2,2.7,1.7,4c0.3,0.8,0.2,1.2-0.3,1.4c-0.5,0.2-0.9,0-1.2-0.8c-0.3-0.8-0.6-1.5-1-2.3c-0.7-1.5-1.3-3-2.2-4.4
					c-0.7-1.1-1.6-2-2.5-3c-0.7-0.7-1.6-1.2-2.7-1.4c-0.5-0.1-0.8-0.5-0.7-0.9C239.9,202.9,240.2,202.6,240.9,202.6z"/>
			</g>
		</g>
	</g>
	<g>
		<g>
			<path class="st56" d="M334.9,264.7c-0.1,8.3-2.9,16-4.7,24c-1.6,6.9-2.2,13.9-1.8,20.9c0.8,13.8,5.2,27.1,12.8,38.6
				c0.9,1.3,3,0.1,2.1-1.2c-7.9-11.9-12.3-25.8-12.6-40.1c-0.1-7.2,0.9-14.2,2.7-21.2c1.8-7,3.8-13.9,3.9-21.1
				C337.3,263.1,334.9,263.1,334.9,264.7L334.9,264.7z"/>
		</g>
		<g>
			<path class="st49" d="M336.7,259.4c0.4,1.1,0.8,2,1.4,2.9c0.3,0.5,0.7,1,1,1.5c0.2,0.3,0.4,0.6,0.5,0.9c0.5,1.1,0,1.9-1.2,2.1
				c-0.3,0-0.7,0-1,0c-1.4-0.1-2.8-0.3-4.2-0.9c-1.2-0.5-1.4-1.1-0.9-2.3c0.6-1.4,1.1-2.8,1.4-4.4c-0.8-0.1-1.5-0.2-2.3-0.4
				c-0.8-0.2-1.6-0.4-2.3-0.7c-2.1-0.8-2.9-2-2.9-4.2c0-2.7,0.1-5.4,0.2-8.1c0.2-4.2,0.2-8.3-0.5-12.4c-0.3-1.5-0.7-3.1-1.6-4.4
				c-0.3-0.5-0.7-1-1.2-1.5c-2.4-2.2-4.6-4.7-6.5-7.3c-1.6-2.2-3.1-4.4-4.6-6.6c-0.7-1-1.2-2.2-1.7-3.4c-0.5-1-0.3-1.9,0.5-2.8
				c0.3-0.3,0.6-0.7,1-1c2.7-2.1,5.5-3.8,8.9-4.6c0.5-0.1,1.1-0.2,1.7-0.2c1.5,0,2.8,0.4,3.8,1.5c0.9,1,1.7,2,2.5,3
				c1.3,1.7,2.7,3.4,4.3,4.8c0.7,0.6,1.4,1.1,2.1,1.5c0.9,0.5,1.5,0.4,2.2-0.4c0.9-1.2,1.8-2.4,2.7-3.6c1.2-1.5,2.3-3.1,3.5-4.6
				c0.5-0.6,1-1.1,1.6-1.7c1.2-1.1,2.6-1.4,4.2-1c1.4,0.4,2.7,0.9,3.9,1.7c1.6,0.9,3,1.9,4.3,3.2c1.6,1.7,1.7,3.1,0.6,5.1
				c-0.7,1.2-1.6,2.4-2.4,3.6c-2.8,3.9-5.5,7.9-7.8,12.2c-2,3.6-2.9,7.5-2.9,11.6c0,4.5-0.1,9-0.2,13.6c0,1.3-0.1,2.5-0.3,3.8
				c-0.3,2.1-1.4,3.1-3.5,3.3c-1,0.1-2.1,0.1-3.1,0.1C337.4,259.4,337.1,259.4,336.7,259.4z"/>
			<g>
				<path class="st50" d="M341.6,243c-0.1,3-0.1,5.3-0.2,7.5c0,0.7-0.2,1.4-0.4,2c-0.6,1.8-1.9,2.9-3.6,3.6c-0.5,0.2-0.9,0-1.1-0.4
					c-0.2-0.4,0-0.9,0.5-1.2c0.1,0,0.1-0.1,0.2-0.1c2-0.7,2.7-2.2,2.9-4.2c0.1-0.8,0.1-1.6,0.1-2.4c0-3.3,0.1-6.6,0.1-9.9
					c0-0.3,0-0.5,0.1-0.8c0.1-0.4,0.4-0.6,0.8-0.6c0.4,0,0.7,0.3,0.8,0.7c0,0.3,0,0.5,0,0.8C341.6,240,341.6,241.8,341.6,243z"/>
				<path class="st50" d="M315.5,209.7c0.1,0.1,0.4,0.3,0.6,0.6c1.8,4,4.6,7.3,7.7,10.4c0.2,0.2,0.4,0.4,0.5,0.6
					c0.3,0.4,0.2,0.8-0.1,1.1c-0.3,0.3-0.7,0.3-1,0.1c-0.1-0.1-0.2-0.1-0.2-0.2c-3.1-3.1-6-6.4-8-10.4c-0.2-0.4-0.4-0.7-0.4-1.1
					C314.4,210.1,314.8,209.7,315.5,209.7z"/>
			</g>
		</g>
	</g>
</g>
</svg>
