<?xml version="1.0" encoding="utf-8"?>
<!-- Generator: Adobe Illustrator 22.0.0, SVG Export Plug-In . SVG Version: 6.00 Build 0)  -->
<svg version="1.1" id="Calque_1" xmlns="http://www.w3.org/2000/svg" xmlns:xlink="http://www.w3.org/1999/xlink" x="0px" y="0px"
	 viewBox="0 0 432 432" style="enable-background:new 0 0 432 432;" xml:space="preserve">
<style type="text/css">
	.st0{fill:#E5DAC7;}
	.st1{fill:#FAF3E3;}
	.st2{fill:#C7B29A;}
	.st3{fill:#972021;}
	.st4{fill:#E9EAE4;}
	.st5{fill:#8C633A;}
	.st6{fill:#F39323;}
	.st7{fill:#ED6F71;}
	.st8{fill:#FFFFFF;}
	.st9{fill:#B6CE3F;}
	.st10{fill:#95AF23;}
	.st11{fill:#18B0C1;}
	.st12{fill:#C2E1D1;}
	.st13{fill:#9F1E29;}
	.st14{fill:#E6E9EA;}
	.st15{fill:#020203;}
	.st16{fill:#4D9564;}
	.st17{fill:#754D24;}
	.st18{fill:#A67D52;}
	.st19{fill:#F0D2B5;}
	.st20{fill:#E1BC9E;}
	.st21{fill:#97509A;}
	.st22{fill:#603914;}
	.st23{fill:#E83078;}
	.st24{fill:#E89125;}
	.st25{fill:#89BF4A;}
	.st26{fill:#82171C;}
	.st27{fill:#6CC2EE;}
	.st28{fill:#1861A9;}
	.st29{fill:#E00825;}
	.st30{fill:#109F3D;}
	.st31{fill:#808181;}
	.st32{fill:#D79A5D;}
	.st33{fill:#C68448;}
	.st34{fill:#D62416;}
	.st35{fill:#F9D61D;}
	.st36{fill:#A9191E;}
	.st37{fill:#F3E4E7;}
	.st38{fill:none;}
	.st39{fill:#E8CAA3;}
	.st40{fill:#64121D;}
	.st41{fill:#15A57E;}
	.st42{fill:#167157;}
	.st43{fill:#CF8916;}
	.st44{fill:#B26F14;}
	.st45{fill:#901D81;}
	.st46{fill:#612261;}
	.st47{fill:#B88E5C;}
	.st48{fill:#EBDCC8;}
	.st49{fill:#F3A0BE;}
	.st50{fill:#FAD7E3;}
	.st51{fill:#EAD797;}
	.st52{fill:#E18CAC;}
	.st53{fill:#A8D9DD;}
	.st54{fill:#67C2C6;}
	.st55{fill:#4EADAD;}
	.st56{fill:#CDCCCC;}
	.st57{fill:#D4C3B3;}
	.st58{fill:#CAB9A7;}
	.st59{fill:#C69C6C;}
	.st60{fill:#D7C5B3;}
	.st61{fill:#96877C;}
	.st62{fill:#EFE8E9;}
	.st63{fill:#B4B4B4;}
	.st64{fill:#F0CC53;}
	.st65{fill:#EE7D54;}
	.st66{fill:#F5D29D;}
	.st67{fill:#5D403F;}
	.st68{fill:#F9CBCC;}
	.st69{fill:#F6DEB8;}
	.st70{fill:#D6A14D;}
	.st71{fill:#B09878;}
	.st72{fill:#C1292E;}
	.st73{fill:#5B4841;}
	.st74{fill:#E0C399;}
	.st75{fill:#EBDA8C;}
	.st76{fill:#363A3D;}
	.st77{fill:#BFC1D7;}
	.st78{fill:#7188BA;}
	.st79{fill:#A34F4D;}
	.st80{fill:#D9CD7A;}
	.st81{fill:#D9AF66;}
	.st82{fill:#E6C776;}
	.st83{fill:#575756;}
	.st84{fill:#C3BF5B;}
	.st85{fill:#63622A;}
	.st86{fill:#E1AE9D;}
	.st87{fill:#D9C7AB;}
	.st88{fill:#B3625C;}
	.st89{fill:#D4BB78;}
	.st90{fill:#009245;}
	.st91{fill:#0B7B3A;}
	.st92{fill:#911A29;}
	.st93{fill:#571419;}
	.st94{fill:#9A9999;}
	.st95{fill:#A81922;}
	.st96{fill:#A3282E;}
	.st97{fill:#B3713B;}
	.st98{fill:#998675;}
	.st99{fill:#6189B1;}
	.st100{fill:#E0EDF3;}
	.st101{fill:#A5C0DF;}
	.st102{fill:#DBDBDB;}
	.st103{fill:#067838;}
	.st104{fill:#E5AEBF;}
	.st105{fill:#9982BC;}
	.st106{fill:#E7E6E6;}
	.st107{fill:#706F6F;}
	.st108{fill:#746458;}
	.st109{fill:#412413;}
	.st110{fill:#544842;}
	.st111{fill:#DAA405;}
	.st112{fill:#D06C5D;}
	.st113{fill:#8C694B;}
	.st114{fill:#C8C8CE;}
	.st115{fill:#D286A7;}
	.st116{fill:#C6CCCC;}
	.st117{fill:#A65F42;}
	.st118{fill:#343434;}
	.st119{fill:#A56E45;}
	.st120{fill:#F2F2F2;}
	.st121{fill:#8AC18A;}
	.st122{fill:#4B6678;}
	.st123{fill:#324C5B;}
	.st124{fill:#97AFBC;}
	.st125{fill:#B27D63;}
	.st126{fill:#6A737A;}
	.st127{fill:#72403F;}
	.st128{fill:#8D7968;}
	.st129{fill:#1B1B1B;}
	.st130{fill:#6B141A;}
	.st131{fill:#E4DCCC;}
	.st132{fill:#B33949;}
	.st133{fill:#6D141B;}
	.st134{fill:#911825;}
	.st135{fill:#821622;}
	.st136{fill:#1F1D1D;}
	.st137{fill:#CC1417;}
	.st138{fill:#69362D;}
	.st139{fill:#ECC9AE;}
	.st140{fill:#471E19;}
	.st141{fill:#2B1D1C;}
	.st142{fill:#BE1622;}
	.st143{fill:#E6332A;}
	.st144{fill:#D8EAF8;}
	.st145{fill:#D4AE8E;}
	.st146{fill:#883B4C;}
	.st147{fill:#C74A54;}
	.st148{fill:#F2959C;}
	.st149{fill:#3C3C3B;}
</style>
<g>
	<g>
		<path class="st54" d="M306.6,288.5c-0.1,4.4-0.8,7.9-2.3,11.2c-0.4,0.8-0.7,1.6-1,2.5c-1.2,3.2-2.7,6.2-4.2,9.2
			c-1.6,3.2-3.2,6.4-5.1,9.4c-1.8,2.9-4.1,5.4-6.9,7.4c-1.9,1.3-4,2.3-6.2,2.8c-2.6,0.6-5.2,0.4-7.8-0.3c-1.9-0.5-3.8-1.2-5.6-1.9
			c-1.6-0.7-3.2-1-4.9-1c-1.4,0-2.8,0-4.1-0.1c-2.9-0.2-5.7-1-8.3-2.4c-2.7-1.4-5-3.3-7-5.6c-0.7-0.8-1.4-1.6-2.1-2.4
			c-0.9-1-1.5-2.1-1.9-3.4c-0.6-1.9-1.2-3.9-1.1-6c0-1.2,0.3-2.4,0.4-3.6c0.4-2.4,1.2-4.7,2.2-7c2.4-5.3,4.3-10.8,6.2-16.3
			c0.8-2.3,1.4-4.6,2.1-6.9c0.6-2.2,1.6-4.2,3.1-5.9c1.9-2.4,4.4-3.7,7.4-4.2c2-0.3,4-0.3,6.1-0.2c5.4,0.2,10.6,1.6,15.5,3.9
			c3.9,1.9,7.8,3.8,11.7,5.5c2.3,1,4.4,2.2,6.4,3.7c1.7,1.3,3.2,2.6,4.6,4.2C305.8,283.4,306.7,286.1,306.6,288.5z"/>
		<path class="st54" d="M281.3,229.8c-0.1,2.2-0.2,4.3-0.2,6.5c0,2.1,0,4.2,0.1,6.3c0.1,2.2,0.4,4.4,0.6,6.6c0.2,2.3,0.5,4.7,0.3,7
			c-0.3,4-3.6,5.8-6.5,5.5c-1.9-0.2-3.6-0.8-5.2-1.8c-0.9-0.5-1.5-1.3-1.8-2.4c-0.4-1.4-0.5-2.9-0.4-4.3c0.4-3.7,0.7-7.5,0.7-11.2
			c0.1-2.8,0.3-5.6,0.3-8.4c0.1-2,0-4,0-6c0-2.5,0.1-5,0.7-7.5c0.4-1.7,1.4-3.1,2.8-4.2c1.3-1.1,2.8-1.1,4.3-0.3
			c1.1,0.7,1.9,1.6,2.5,2.8c0.7,1.6,1.2,3.2,1.4,5C281.2,225.7,281.4,227.8,281.3,229.8z"/>
		<path class="st54" d="M307,230.4c-0.1,3-0.4,5.5-0.7,8.1c-0.7,5.3-2,10.5-3.1,15.7c-0.4,1.9-0.8,3.9-1.2,5.8
			c-0.4,1.7-1.1,3.4-2.2,4.8c-1.4,1.7-3.1,2.9-5.3,3.2c-2.1,0.4-4-0.2-5.7-1.6c-0.7-0.6-1-1.5-1.1-2.4c-0.1-1.6,0.2-3.1,0.8-4.5
			c0.3-0.7,0.6-1.4,1-2.1c1.9-3.8,3.3-7.7,4-11.9c0.8-4.3,1.9-8.5,3-12.7c0.4-1.5,0.8-3,1.2-4.6c0.3-1.1,0.7-2.1,1.3-3
			c0.4-0.5,0.8-1.1,1.3-1.5c1.7-1.5,4.1-1.1,5.2,0.9c0.7,1.1,1,2.4,1.2,3.7C306.9,229.1,307,229.9,307,230.4z"/>
		<path class="st54" d="M213.2,267c0.1-2.6,1-4.3,3-5.4c1-0.5,2.1-1,3.3-1.1c1.9-0.1,3.7,0.5,5.2,1.7c1.6,1.2,2.8,2.7,3.8,4.4
			c0.8,1.2,1.5,2.5,2.2,3.7c1.5,2.8,3.3,5.3,5,7.9c1.3,2,2.5,4.1,3.3,6.3c0.4,1,0.7,2.1,0.8,3.1c0.2,2.4-0.5,4.5-2.1,6.2
			c-1.2,1.3-2.8,1.5-4.4,1.1c-1-0.2-1.8-0.7-2.6-1.4c-1.8-1.5-3.3-3.2-4.7-5.1c-2.4-3.2-4.4-6.6-6.7-9.8c-1-1.4-1.9-2.8-2.9-4.1
			c-1.2-1.8-2.3-3.6-2.9-5.7C213.4,268.2,213.3,267.4,213.2,267z"/>
		<path class="st54" d="M261.7,254.6c0.1,2.3-0.9,4-2.7,5.3c-1.6,1.1-3.3,1.9-5.2,2.2c-0.4,0.1-0.8,0.1-1.2,0
			c-0.9,0-1.4-0.6-1.8-1.3c-0.6-1-1.1-2-1.6-3c-0.8-1.6-1.1-3.4-1.4-5.1c-0.3-1.8-0.5-3.6-0.4-5.5c0.1-2.8-0.3-5.6-0.7-8.3
			c-0.3-1.7-0.5-3.5-0.7-5.2c-0.2-1.4-0.5-2.8-0.7-4.2c-0.3-2-0.4-4,0.2-6c0.4-1.5,1.3-2.8,2.6-3.7c0.9-0.6,1.8-0.8,2.8-0.5
			c0.6,0.2,1.1,0.5,1.5,1c0.7,0.7,1.2,1.5,1.7,2.4c0.9,1.9,1.5,3.9,1.9,6c0.8,3.6,1.5,7.3,2.4,10.9c0.6,2.8,1.4,5.6,2.1,8.3
			c0.4,1.7,0.7,3.4,1,5.1C261.6,253.6,261.6,254.1,261.7,254.6z"/>
		<path class="st54" d="M324.6,249.7c0,2.3-0.5,4.3-1.3,6.2c-1.4,3.2-2.8,6.3-4.2,9.5c-1.2,2.9-2.7,5.6-4.2,8.3
			c-0.7,1.2-1.5,2.4-2.6,3.3c-0.6,0.5-1.2,1-1.8,1.4c-1.1,0.7-2.3,0.8-3.6,0.5c-0.4-0.1-0.8-0.2-1.2-0.3c-1.8-0.7-2.9-2-3.2-3.9
			c-0.2-0.9,0.1-1.7,0.5-2.4c0.6-1,1.2-2,1.9-3c2.4-3.6,4.4-7.4,6.2-11.4c1.1-2.4,2.3-4.6,3.5-6.9c0.5-0.9,1.1-1.8,1.8-2.7
			c0.8-1,1.7-1.8,2.8-2.4c0.4-0.2,0.9-0.5,1.4-0.6c1.3-0.3,2.3,0.1,3.1,1.2C324.4,247.5,324.5,248.7,324.6,249.7z"/>
	</g>
	<g>
		<path class="st54" d="M125.4,324.4c0.1,4.4,0.8,7.9,2.3,11.2c0.4,0.8,0.7,1.6,1,2.5c1.2,3.2,2.7,6.2,4.2,9.2
			c1.6,3.2,3.2,6.4,5.1,9.4c1.8,2.9,4.1,5.4,6.9,7.4c1.9,1.3,4,2.3,6.2,2.8c2.6,0.6,5.2,0.4,7.8-0.3c1.9-0.5,3.8-1.2,5.6-1.9
			c1.6-0.7,3.2-1,4.9-1c1.4,0,2.8,0,4.1-0.1c2.9-0.2,5.7-1,8.3-2.4c2.7-1.4,5-3.3,7-5.6c0.7-0.8,1.4-1.6,2.1-2.4
			c0.9-1,1.5-2.1,1.9-3.4c0.6-1.9,1.2-3.9,1.1-6c0-1.2-0.3-2.4-0.4-3.6c-0.4-2.4-1.2-4.7-2.2-7c-2.4-5.3-4.3-10.8-6.2-16.3
			c-0.8-2.3-1.4-4.6-2.1-6.9c-0.6-2.2-1.6-4.2-3.1-5.9c-1.9-2.4-4.4-3.7-7.4-4.2c-2-0.3-4-0.3-6.1-0.2c-5.4,0.2-10.6,1.6-15.5,3.9
			c-3.9,1.9-7.8,3.8-11.7,5.5c-2.3,1-4.4,2.2-6.4,3.7c-1.7,1.3-3.2,2.6-4.6,4.2C126.2,319.3,125.3,322.1,125.4,324.4z"/>
		<path class="st54" d="M150.7,265.8c0.1,2.2,0.2,4.3,0.2,6.5c0,2.1,0,4.2-0.1,6.3c-0.1,2.2-0.4,4.4-0.6,6.6c-0.2,2.3-0.5,4.7-0.3,7
			c0.3,4,3.6,5.8,6.5,5.5c1.9-0.2,3.6-0.8,5.2-1.8c0.9-0.5,1.5-1.3,1.8-2.4c0.4-1.4,0.5-2.9,0.4-4.3c-0.4-3.7-0.7-7.5-0.7-11.2
			c-0.1-2.8-0.3-5.6-0.3-8.4c-0.1-2,0-4,0-6c0-2.5-0.1-5-0.7-7.5c-0.4-1.7-1.4-3.1-2.8-4.2c-1.3-1.1-2.8-1.1-4.3-0.3
			c-1.1,0.7-1.9,1.6-2.5,2.8c-0.7,1.6-1.2,3.2-1.4,5C150.8,261.7,150.6,263.7,150.7,265.8z"/>
		<path class="st54" d="M125,266.4c0.1,3,0.4,5.5,0.7,8.1c0.7,5.3,2,10.5,3.1,15.7c0.4,1.9,0.8,3.9,1.2,5.8c0.4,1.7,1.1,3.4,2.2,4.8
			c1.4,1.7,3.1,2.9,5.3,3.2c2.1,0.4,4-0.2,5.7-1.6c0.7-0.6,1-1.5,1.1-2.4c0.1-1.6-0.2-3.1-0.8-4.5c-0.3-0.7-0.6-1.4-1-2.1
			c-1.9-3.8-3.3-7.7-4-11.9c-0.8-4.3-1.9-8.5-3-12.7c-0.4-1.5-0.8-3-1.2-4.6c-0.3-1.1-0.7-2.1-1.3-3c-0.4-0.5-0.8-1.1-1.3-1.5
			c-1.7-1.5-4.1-1.1-5.2,0.9c-0.7,1.1-1,2.4-1.2,3.7C125.1,265.1,125,265.9,125,266.4z"/>
		<path class="st54" d="M218.8,302.9c-0.1-2.6-1-4.3-3-5.4c-1-0.5-2.1-1-3.3-1.1c-1.9-0.1-3.7,0.5-5.2,1.7c-1.6,1.2-2.8,2.7-3.8,4.4
			c-0.8,1.2-1.5,2.5-2.2,3.7c-1.5,2.8-3.3,5.3-5,7.9c-1.3,2-2.5,4.1-3.3,6.3c-0.4,1-0.7,2.1-0.8,3.1c-0.2,2.4,0.5,4.5,2.1,6.2
			c1.2,1.3,2.8,1.5,4.4,1.1c1-0.2,1.8-0.7,2.6-1.4c1.8-1.5,3.3-3.2,4.7-5.1c2.4-3.2,4.4-6.6,6.7-9.8c1-1.4,1.9-2.8,2.9-4.1
			c1.2-1.8,2.3-3.6,2.9-5.7C218.6,304.2,218.7,303.4,218.8,302.9z"/>
		<path class="st54" d="M170.3,290.6c-0.1,2.3,0.9,4,2.7,5.3c1.6,1.1,3.3,1.9,5.2,2.2c0.4,0.1,0.8,0.1,1.2,0c0.9,0,1.4-0.6,1.8-1.3
			c0.6-1,1.1-2,1.6-3c0.8-1.6,1.1-3.4,1.4-5.1c0.3-1.8,0.5-3.6,0.4-5.5c-0.1-2.8,0.3-5.6,0.7-8.3c0.3-1.7,0.5-3.5,0.7-5.2
			c0.2-1.4,0.5-2.8,0.7-4.2c0.3-2,0.4-4-0.2-6c-0.4-1.5-1.3-2.8-2.6-3.7c-0.9-0.6-1.8-0.8-2.8-0.5c-0.6,0.2-1.1,0.5-1.5,1
			c-0.7,0.7-1.2,1.5-1.7,2.4c-0.9,1.9-1.5,3.9-1.9,6c-0.8,3.6-1.5,7.3-2.4,10.9c-0.6,2.8-1.4,5.6-2.1,8.3c-0.4,1.7-0.7,3.4-1,5.1
			C170.4,289.6,170.4,290.1,170.3,290.6z"/>
		<path class="st54" d="M107.4,285.6c0,2.3,0.5,4.3,1.3,6.2c1.4,3.2,2.8,6.3,4.2,9.5c1.2,2.9,2.7,5.6,4.2,8.3
			c0.7,1.2,1.5,2.4,2.6,3.3c0.6,0.5,1.2,1,1.8,1.4c1.1,0.7,2.3,0.8,3.6,0.5c0.4-0.1,0.8-0.2,1.2-0.3c1.8-0.7,2.9-2,3.2-3.9
			c0.2-0.9-0.1-1.7-0.5-2.4c-0.6-1-1.2-2-1.9-3c-2.4-3.6-4.4-7.4-6.2-11.4c-1.1-2.4-2.3-4.6-3.5-6.9c-0.5-0.9-1.1-1.8-1.8-2.7
			c-0.8-1-1.7-1.8-2.8-2.4c-0.4-0.2-0.9-0.5-1.4-0.6c-1.3-0.3-2.3,0.1-3.1,1.2C107.6,283.5,107.5,284.7,107.4,285.6z"/>
	</g>
</g>
<g>
	<g>
		<path class="st52" d="M156.9,124.6c4.7,0.1,9.1,0.5,13.4,1.9c2.6,0.8,5,2,7.1,3.6c3.8,3,6,7,6.6,11.8c0.4,3.4-0.2,6.7-1.2,10
			c-1.2,4.1-3,7.9-4.8,11.7c-1.8,3.6-3.6,7.2-5,11c-0.8,2-1.4,4.1-1.8,6.3c-0.4,2.2-0.4,4.3,0,6.5c0.4,2.9,0.9,5.7,1.3,8.6
			c0.6,3.9,0.8,7.8,0.5,11.8c-0.3,4.6-1.4,8.9-3.6,13c0,0.1-0.1,0.2-0.1,0.3c-2,4-5.3,6.2-9.7,7.1c-4.6,0.9-8.9,0.1-12.9-2.1
			c-3-1.7-5.5-3.9-7.8-6.5c-3.6-4.1-6.2-8.7-8.4-13.7c-1.8-4.1-3-8.3-4.1-12.7c-1-3.9-1.8-7.8-2.3-11.7c-0.2-1.8-0.4-3.7-0.5-5.5
			c-0.3-3.8-0.4-7.6-0.3-11.4c0.2-6.8,1-13.4,3.1-19.9c1.1-3.2,2.5-6.3,4.2-9.2c2.4-4.1,5.9-6.7,10.4-8.1c3.8-1.2,7.6-2.1,11.6-2.5
			C154.1,124.7,155.6,124.7,156.9,124.6z"/>
		<path class="st52" d="M191.7,111.4c-0.1,3.6-1.2,6.8-3.3,9.7c-1.4,1.9-2.9,3.6-5.1,4.6c-1.6,0.8-3.3,1.3-5.1,1.4
			c-2.7,0.1-4.7-1.1-6.3-3.2c-1.2-1.6-2-3.5-2.2-5.5c-0.7-5.2,0.8-9.9,4.4-13.7c0.8-0.8,1.7-1.6,2.6-2.3c2-1.4,4.3-2.1,6.8-1.8
			c2.7,0.3,4.9,1.6,6.4,4C191.1,106.7,191.8,109,191.7,111.4z"/>
		<path class="st52" d="M169,108.7c-0.1,2.8-0.7,5.3-1.9,7.5c-1.6,3-4.2,4.2-7.5,4c-3.3-0.2-5.8-1.9-6.9-5c-1.8-5.1-1-9.9,2.3-14.2
			c1-1.3,2.4-2,4.1-2c2.5-0.1,4.7,0.7,6.7,2.2c1.8,1.4,2.7,3.4,3.1,5.6C168.9,107.6,169,108.3,169,108.7z"/>
		<path class="st52" d="M136,112.5c-0.1-1.4,0.1-2.7,0.7-4c1.2-2.4,3.2-3.6,5.7-3.9c1.8-0.2,3.3,0.6,4.6,1.7c1,0.9,1.6,2,2.1,3.2
			c0.6,1.6,0.9,3.3,1,5c0,1.2-0.2,2.4-0.6,3.5c-1.1,3.1-3.5,4.4-6.7,3.7c-2.1-0.5-3.8-1.6-4.9-3.4
			C136.7,116.5,135.9,114.6,136,112.5z"/>
		<path class="st52" d="M130.1,127.5c-3,0-6.4-2.1-7.1-6c-0.2-1.3-0.4-2.6-0.1-3.9c0.4-1.6,1.2-2.9,2.7-3.8c1.2-0.8,2.6-0.9,3.9-0.4
			c3,1.2,5.1,3.4,6.2,6.4c0.5,1.4,0.6,2.9-0.1,4.3C134.6,126.4,132.7,127.5,130.1,127.5z"/>
		<path class="st52" d="M122,139c-3.8,0.2-6.7-3.2-7.4-6.1c-0.2-0.9-0.4-1.9-0.2-2.8c0.4-1.8,1.9-3.2,3.7-3.5
			c2.3-0.4,4.3,0.2,6.2,1.5c1.2,0.9,2.3,2,3.2,3.3c0.3,0.5,0.6,1,0.8,1.5c0.6,1.6,0.3,3-0.9,4.2C126,138.5,124.2,139,122,139z"/>
	</g>
	<g>
		<path class="st52" d="M234.4,90.4c-4.7,0.1-9.1,0.5-13.4,1.9c-2.6,0.8-5,2-7.1,3.6c-3.8,3-6,7-6.6,11.8c-0.4,3.4,0.2,6.7,1.2,10
			c1.2,4.1,3,7.9,4.8,11.7c1.8,3.6,3.6,7.2,5,11c0.8,2,1.4,4.1,1.8,6.3c0.4,2.2,0.4,4.3,0,6.5c-0.4,2.9-0.9,5.7-1.3,8.6
			c-0.6,3.9-0.8,7.8-0.5,11.8c0.3,4.6,1.4,8.9,3.6,13c0,0.1,0.1,0.2,0.1,0.3c2,4,5.3,6.2,9.7,7.1c4.6,0.9,8.9,0.1,12.9-2.1
			c3-1.7,5.5-3.9,7.8-6.5c3.6-4.1,6.2-8.7,8.4-13.7c1.8-4.1,3-8.3,4.1-12.7c1-3.9,1.8-7.8,2.3-11.7c0.2-1.8,0.4-3.7,0.5-5.5
			c0.3-3.8,0.4-7.6,0.3-11.4c-0.2-6.8-1-13.4-3.1-19.9c-1.1-3.2-2.5-6.3-4.2-9.2c-2.4-4.1-5.9-6.7-10.4-8.1
			c-3.8-1.2-7.6-2.1-11.6-2.5C237.2,90.4,235.6,90.4,234.4,90.4z"/>
		<path class="st52" d="M199.5,77.2c0.1,3.6,1.2,6.8,3.3,9.7c1.4,1.9,2.9,3.6,5.1,4.6c1.6,0.8,3.3,1.3,5.1,1.4
			c2.7,0.1,4.7-1.1,6.3-3.2c1.2-1.6,2-3.5,2.2-5.5c0.7-5.2-0.8-9.9-4.4-13.7c-0.8-0.8-1.7-1.6-2.6-2.3c-2-1.4-4.3-2.1-6.8-1.8
			c-2.7,0.3-4.9,1.6-6.4,4C200.1,72.4,199.5,74.7,199.5,77.2z"/>
		<path class="st52" d="M222.3,74.5c0.1,2.8,0.7,5.3,1.9,7.5c1.6,3,4.2,4.2,7.5,4c3.3-0.2,5.8-1.9,6.9-5c1.8-5.1,1-9.9-2.3-14.2
			c-1-1.3-2.4-2-4.1-2c-2.5-0.1-4.7,0.7-6.7,2.2c-1.8,1.4-2.7,3.4-3.1,5.6C222.3,73.3,222.3,74,222.3,74.5z"/>
		<path class="st52" d="M255.3,78.2c0.1-1.4-0.1-2.7-0.7-4c-1.2-2.4-3.2-3.6-5.7-3.9c-1.8-0.2-3.3,0.6-4.6,1.7c-1,0.9-1.6,2-2.1,3.2
			c-0.6,1.6-0.9,3.3-1,5c0,1.2,0.2,2.4,0.6,3.5c1.1,3.1,3.5,4.4,6.7,3.7c2.1-0.5,3.8-1.6,4.9-3.4C254.6,82.3,255.4,80.4,255.3,78.2z
			"/>
		<path class="st52" d="M261.1,93.3c3,0,6.4-2.1,7.1-6c0.2-1.3,0.4-2.6,0.1-3.9c-0.4-1.6-1.2-2.9-2.7-3.8c-1.2-0.8-2.6-0.9-3.9-0.4
			c-3,1.2-5.1,3.4-6.2,6.4c-0.5,1.4-0.6,2.9,0.1,4.3C256.7,92.2,258.5,93.2,261.1,93.3z"/>
		<path class="st52" d="M269.3,104.8c3.8,0.2,6.7-3.2,7.4-6.1c0.2-0.9,0.4-1.9,0.2-2.8c-0.4-1.8-1.9-3.2-3.7-3.5
			c-2.3-0.4-4.3,0.2-6.2,1.5c-1.2,0.9-2.3,2-3.2,3.3c-0.3,0.5-0.6,1-0.8,1.5c-0.6,1.6-0.3,3,0.9,4.2
			C265.3,104.2,267.1,104.7,269.3,104.8z"/>
	</g>
</g>
</svg>
